<?xml version="1.0" standalone="no"?>
<!DOCTYPE svg PUBLIC "-//W3C//DTD SVG 1.1//EN" "http://www.w3.org/Graphics/SVG/1.1/DTD/svg11.dtd" >
<svg xmlns="http://www.w3.org/2000/svg" xmlns:xlink="http://www.w3.org/1999/xlink" version="1.1">
<metadata>
Created by FontForge 20170731 at Fri Dec 11 04:09:30 1992
 By ,,,
Copyright 1990-1993 Bitstream Inc.  All rights reserved.
</metadata>
<defs>
<font id="NewsGothicBT-RomanCondensed" horiz-adv-x="1024" >
  <font-face 
    font-family="NewsGoth Cn BT"
    font-weight="400"
    font-stretch="condensed"
    units-per-em="2048"
    panose-1="2 11 5 6 2 2 2 3 2 4"
    ascent="1638"
    descent="-410"
    x-height="1063"
    cap-height="1481"
    bbox="-340 -483 2179 1970"
    underline-thickness="94"
    underline-position="-319"
    unicode-range="U+0020-F002"
  />
<missing-glyph horiz-adv-x="1229" 
d="M102 -362v1806h1024v-1806h-1024zM217 -248h795v1577h-795v-1577z" />
    <glyph glyph-name=".notdef" horiz-adv-x="1229" 
d="M102 -362v1806h1024v-1806h-1024zM217 -248h795v1577h-795v-1577z" />
    <glyph glyph-name=".null" horiz-adv-x="0" 
 />
    <glyph glyph-name="nonmarkingreturn" horiz-adv-x="434" 
 />
    <glyph glyph-name="space" unicode=" " horiz-adv-x="434" 
 />
    <glyph glyph-name="exclam" unicode="!" horiz-adv-x="524" 
d="M182 0v182h162v-182h-162zM211 436l-35 1047h170l-33 -1047h-102z" />
    <glyph glyph-name="quotedbl" unicode="&#x22;" horiz-adv-x="569" 
d="M473 1434v-553h-102v553h102zM199 1434v-553h-101v553h101z" />
    <glyph glyph-name="numbersign" unicode="#" horiz-adv-x="1575" 
d="M975 864h-266l-97 -276h267zM918 1454l-168 -483h264l172 483h127l-170 -483h315l-37 -107h-317l-98 -276h340l-37 -109h-340l-170 -479h-129l172 479h-269l-172 -479h-127l170 479h-327l39 109h325l101 276h-353l35 107h354l173 483h127z" />
    <glyph glyph-name="dollar" unicode="$" horiz-adv-x="870" 
d="M385 889v467q-77 -6 -119.5 -55t-42.5 -132q0 -84 38 -150.5t124 -129.5zM487 121q88 6 139.5 68t51.5 161q0 89 -45 161.5t-146 143.5v-534zM385 -231v231q-139 23 -216.5 125.5t-86.5 275.5h123q5 -123 50.5 -192.5t129.5 -81.5v604q-140 98 -207 203t-67 225
q0 130 74 212.5t200 92.5v201h102v-201q125 -15 195.5 -106t81.5 -250h-114q-5 105 -45 166.5t-118 81.5v-541q172 -128 241 -233t69 -232q0 -152 -81 -243.5t-229 -106.5v-231h-102z" />
    <glyph glyph-name="percent" unicode="%" horiz-adv-x="1507" 
d="M233 -29l897 1514h113l-897 -1514h-113zM397 1372q-82 0 -140 -58.5t-58 -142.5q0 -82 57.5 -140t140.5 -58t141 58t58 140q0 84 -58 142.5t-141 58.5zM397 1485q129 0 220.5 -91t91.5 -220q0 -130 -91.5 -221t-220.5 -91t-220 91t-91 221q0 129 91 220t220 91zM1108 485
q-83 0 -141 -57.5t-58 -140.5t58 -141t141 -58t141 58t58 141t-58 140.5t-141 57.5zM1108 598q129 0 220 -91t91 -220t-91 -220.5t-220 -91.5t-220 91.5t-91 220.5t91 220t220 91z" />
    <glyph glyph-name="ampersand" unicode="&#x26;" horiz-adv-x="1036" 
d="M422 920q82 78 121 154t39 157q0 75 -32 117.5t-87 42.5q-57 0 -89 -45.5t-32 -124.5q0 -68 20 -143.5t60 -157.5zM651 236q-77 94 -146.5 203.5t-133.5 236.5q-79 -69 -118.5 -150t-39.5 -172q0 -107 61 -174t158 -67q62 0 115 29.5t104 93.5zM1004 111l-80 -117
q-51 34 -94.5 72.5t-79.5 80.5q-71 -91 -152.5 -133.5t-183.5 -42.5q-150 0 -246 104.5t-96 268.5q0 111 53 217.5t182 247.5q-49 113 -73.5 211.5t-24.5 185.5q0 141 68 220t188 79q113 0 185.5 -76.5t72.5 -197.5q0 -101 -56.5 -202t-187.5 -232q45 -106 107.5 -208.5
t142.5 -201.5q31 66 47.5 144.5t20.5 178.5l137 -6q-3 -125 -29.5 -232t-77.5 -196q36 -41 80 -82.5t97 -82.5z" />
    <glyph glyph-name="quotesingle" unicode="'" horiz-adv-x="295" 
d="M199 1434v-553h-101v553h101z" />
    <glyph glyph-name="parenleft" unicode="(" horiz-adv-x="563" 
d="M524 -162h-139q-127 205 -188.5 410t-61.5 426t61.5 426t188.5 409h139q-133 -210 -195.5 -412t-62.5 -423t62.5 -423t195.5 -413z" />
    <glyph glyph-name="parenright" unicode=")" horiz-adv-x="563" 
d="M39 -162q133 211 195.5 413t62.5 423t-62.5 423t-195.5 412h139q127 -204 188.5 -409t61.5 -426t-61.5 -426t-188.5 -410h-139z" />
    <glyph glyph-name="asterisk" unicode="*" 
d="M340 705l-129 96l235 256l-337 71l47 150l315 -143l-29 346h140l-29 -346l315 143l47 -150l-337 -71l235 -256l-129 -96l-172 305z" />
    <glyph glyph-name="plus" unicode="+" horiz-adv-x="1706" 
d="M903 1221v-562h549v-98h-549v-561h-98v561h-551v98h551v562h98z" />
    <glyph glyph-name="comma" unicode="," horiz-adv-x="436" 
d="M145 0v186h162v-194l-121 -285h-59l90 293h-72z" />
    <glyph glyph-name="hyphen" unicode="-" horiz-adv-x="674" 
d="M92 467v127h490v-127h-490z" />
    <glyph glyph-name="period" unicode="." horiz-adv-x="436" 
d="M137 0v182h162v-182h-162z" />
    <glyph glyph-name="slash" unicode="/" horiz-adv-x="569" 
d="M-49 -190l553 1699h114l-555 -1699h-112z" />
    <glyph glyph-name="zero" unicode="0" horiz-adv-x="870" 
d="M227 735q0 -369 46 -501t161 -132t160 130.5t45 502.5t-45 502.5t-160 130.5t-161 -132t-46 -501zM84 735q0 422 80.5 592t269.5 170q191 0 271.5 -170t80.5 -592q0 -421 -80.5 -590.5t-271.5 -169.5q-190 0 -270 170t-80 590z" />
    <glyph glyph-name="one" unicode="1" horiz-adv-x="870" 
d="M207 0v123h176v1175l-176 -12v84q73 24 131 52.5t104 62.5h82v-1362h168v-123h-485z" />
    <glyph glyph-name="two" unicode="2" horiz-adv-x="870" 
d="M90 0v127q33 101 96.5 213t212.5 319q9 12 25 35q207 282 207 447q0 104 -51.5 165.5t-139.5 61.5q-97 0 -148.5 -77t-56.5 -228h-128q4 216 89 322t255 106q147 0 233 -93t86 -253q0 -189 -255 -538q-21 -29 -32 -44q-124 -170 -179.5 -261.5t-82.5 -164.5h545v-137
h-676z" />
    <glyph glyph-name="three" unicode="3" horiz-adv-x="870" 
d="M76 350h127q0 -123 47 -183.5t143 -60.5q99 0 153 83t54 235q0 155 -76.5 227t-240.5 72h-15v117h21q146 0 218.5 67.5t72.5 202.5q0 119 -47.5 187.5t-126.5 68.5q-75 0 -119 -50t-58 -149h-124q9 153 88 237.5t210 84.5q144 0 230 -104.5t86 -278.5q0 -118 -44 -196.5
t-136 -123.5q106 -39 158.5 -129t52.5 -233q0 -205 -95 -324.5t-256 -119.5q-157 0 -240 90t-83 262v18z" />
    <glyph glyph-name="four" unicode="4" horiz-adv-x="870" 
d="M516 461l14 907h-8q-29 -99 -82 -249l-4 -11l-237 -647h317zM516 -25v357h-461v74l396 1064h206v-1009h154v-129h-154v-357h-141z" />
    <glyph glyph-name="five" unicode="5" horiz-adv-x="870" 
d="M113 340h126q2 -117 48 -179.5t131 -62.5q102 0 159.5 109.5t57.5 306.5q0 165 -52.5 252.5t-150.5 87.5q-60 0 -106.5 -36.5t-73.5 -106.5l-113 20l49 739h510l-14 -129h-383l-22 -434q31 34 70.5 50t94.5 16q161 0 246.5 -118.5t85.5 -340.5q0 -256 -98 -397.5
t-275 -141.5q-137 0 -213.5 91.5t-76.5 255.5v18z" />
    <glyph glyph-name="six" unicode="6" horiz-adv-x="870" 
d="M246 771q47 61 108 94.5t125 33.5q139 0 222 -122.5t83 -332.5q0 -216 -92.5 -342.5t-249.5 -126.5q-177 0 -257.5 170t-80.5 549q0 395 94 598t275 203q120 0 196.5 -80.5t77.5 -210.5h-130q-10 88 -46 131t-100 43q-108 0 -165 -153.5t-60 -453.5zM252 639v-6
q-4 -71 -4 -105q0 -206 53 -314t154 -108q90 0 139 89t49 254q0 161 -48 246t-140 85q-55 0 -107.5 -36.5t-95.5 -104.5z" />
    <glyph glyph-name="seven" unicode="7" horiz-adv-x="870" 
d="M180 -25l420 1368h-489v127h639v-92l-422 -1403h-148z" />
    <glyph glyph-name="eight" unicode="8" horiz-adv-x="870" 
d="M436 852q100 73 146.5 148.5t46.5 164.5q0 91 -54 149t-139 58q-84 0 -135 -59t-51 -158q0 -85 45.5 -159t140.5 -144zM434 711q-111 -75 -164 -159t-53 -183q0 -116 61.5 -190.5t155.5 -74.5q95 0 155 73t60 190q0 104 -51.5 186.5t-163.5 157.5zM309 778
q-98 77 -146 168.5t-48 202.5q0 155 89 249.5t236 94.5t237.5 -90t90.5 -236q0 -108 -53.5 -203.5t-161.5 -177.5q121 -79 182.5 -184.5t61.5 -234.5q0 -169 -104.5 -280.5t-262.5 -111.5q-161 0 -259.5 109t-98.5 289q0 113 57 211t180 194z" />
    <glyph glyph-name="nine" unicode="9" horiz-adv-x="870" 
d="M614 831l1 7q3 71 3 104q0 206 -52.5 314t-153.5 108q-92 0 -141.5 -88.5t-49.5 -253.5q0 -162 48.5 -247t140.5 -85q54 0 108 37t96 104zM620 700q-46 -61 -108 -95t-127 -34q-138 0 -220.5 122.5t-82.5 332.5q0 217 91.5 343t248.5 126q178 0 259 -170t81 -549
q0 -393 -94.5 -597t-276.5 -204q-119 0 -194.5 80t-77.5 211h129q9 -87 46 -130.5t101 -43.5q109 0 165.5 154t59.5 454z" />
    <glyph glyph-name="colon" unicode=":" horiz-adv-x="483" 
d="M162 0v182h162v-182h-162zM162 559v182h162v-182h-162z" />
    <glyph glyph-name="semicolon" unicode=";" horiz-adv-x="483" 
d="M160 0v186h162v-194l-121 -285h-60l88 293h-69zM160 559v182h162v-182h-162z" />
    <glyph glyph-name="less" unicode="&#x3c;" horiz-adv-x="1706" 
d="M1442 1026l-1022 -416l1022 -413v-109l-1178 481v82l1178 484v-109z" />
    <glyph glyph-name="equal" unicode="=" horiz-adv-x="1706" 
d="M1452 473v-98h-1198v98h1198zM1452 846v-98h-1198v98h1198z" />
    <glyph glyph-name="greater" unicode="&#x3e;" horiz-adv-x="1706" 
d="M1442 651v-82l-1178 -481v109l1022 413l-1022 416v109z" />
    <glyph glyph-name="question" unicode="?" horiz-adv-x="702" 
d="M199 0v182h161v-182h-161zM227 440v58q0 89 20.5 170t71.5 184q17 33 52 95q102 180 102 284q0 77 -36.5 121.5t-98.5 44.5q-64 0 -102.5 -48.5t-38.5 -129.5v-7l-123 13q7 134 79 209t193 75q122 0 192 -73t70 -201q0 -137 -132 -349q-37 -59 -54 -89
q-48 -84 -69 -158.5t-21 -157.5q0 -6 1 -19.5t1 -21.5h-107z" />
    <glyph glyph-name="at" unicode="@" horiz-adv-x="2048" 
d="M1298 836l60 125h94l-139 -562q-10 -44 -13.5 -62.5t-3.5 -29.5q0 -43 28.5 -67.5t78.5 -24.5q52 0 106.5 21t104.5 61q97 77 151 204.5t54 282.5q0 254 -198 417t-509 163q-175 0 -320 -49.5t-262 -149.5q-147 -126 -222 -290.5t-75 -362.5q0 -174 60 -305t184 -232
q102 -82 244 -128t301 -46q171 0 334.5 49.5t300.5 143.5l39 -55q-147 -111 -311 -166.5t-343 -55.5q-191 0 -347 46.5t-275 138.5q-155 118 -229 273.5t-74 361.5q0 204 86 381.5t252 314.5q132 109 298.5 165t360.5 56q162 0 308 -44t249 -124q129 -99 194.5 -228
t65.5 -280q0 -171 -62 -309.5t-181 -232.5q-70 -54 -149 -82.5t-161 -28.5q-97 0 -144.5 37.5t-47.5 113.5q0 4 1 14t1 15q-51 -87 -127 -133.5t-168 -46.5q-153 0 -233 83.5t-80 244.5q0 230 135 388t329 158q94 0 158 -41t96 -122zM1210 469l62 248q-18 93 -75.5 145.5
t-139.5 52.5q-154 0 -254.5 -133.5t-100.5 -337.5q0 -111 55 -173t152 -62q107 0 189.5 71.5t111.5 188.5z" />
    <glyph glyph-name="A" unicode="A" horiz-adv-x="901" 
d="M295 575h309l-155 775zM27 0l321 1481h209l324 -1481h-160l-86 436h-373l-86 -436h-149z" />
    <glyph glyph-name="B" unicode="B" horiz-adv-x="973" 
d="M285 135h153q159 0 232 68t73 215q0 149 -77 220t-240 71h-141v-574zM285 838h141q143 0 216 68t73 202q0 131 -69.5 186.5t-239.5 55.5h-121v-512zM133 0v1481h270q163 0 237 -24.5t132 -84.5q42 -42 65 -108t23 -146q0 -126 -52.5 -209.5t-158.5 -126.5
q124 -44 184 -135t60 -233q0 -210 -116 -312t-353 -102h-291z" />
    <glyph glyph-name="C" unicode="C" horiz-adv-x="950" 
d="M889 485v-32q0 -231 -101 -356.5t-286 -125.5q-208 0 -313 188.5t-105 561.5q0 405 103.5 597.5t320.5 192.5q170 0 268 -123.5t98 -340.5h-147q-8 162 -64.5 246.5t-156.5 84.5q-140 0 -202 -150.5t-62 -492.5q0 -335 68 -482t220 -147q104 0 163 92.5t59 256.5v30h137z
" />
    <glyph glyph-name="D" unicode="D" horiz-adv-x="993" 
d="M295 1349v-1209q35 -3 52 -4t30 -1q210 0 294.5 133.5t84.5 479.5q0 341 -84 473.5t-293 132.5q-14 0 -31.5 -1t-52.5 -4zM141 0v1481h275q258 0 374.5 -175t116.5 -563q0 -392 -116.5 -567.5t-374.5 -175.5h-275z" />
    <glyph glyph-name="E" unicode="E" horiz-adv-x="854" 
d="M133 0v1481h666v-138h-514v-509h377v-136h-377v-561h532v-137h-684z" />
    <glyph glyph-name="F" unicode="F" horiz-adv-x="799" 
d="M133 0v1481h621v-138h-469v-509h360v-136h-360v-698h-152z" />
    <glyph glyph-name="G" unicode="G" horiz-adv-x="981" 
d="M780 0l-16 86q-50 -59 -112.5 -87t-145.5 -28q-211 0 -316.5 187.5t-105.5 562.5q0 405 103.5 597.5t320.5 192.5q170 0 268 -123.5t98 -340.5h-147q-8 162 -64.5 246.5t-156.5 84.5q-140 0 -201 -149.5t-61 -503.5q0 -324 67 -471.5t213 -147.5q102 0 160.5 75t58.5 206
v174h-215v133h359v-694h-107z" />
    <glyph glyph-name="H" unicode="H" horiz-adv-x="999" 
d="M133 0v1481h152v-635h430v635h151v-1481h-151v705h-430v-705h-152z" />
    <glyph glyph-name="I" unicode="I" horiz-adv-x="428" 
d="M137 0v1481h152v-1481h-152z" />
    <glyph glyph-name="J" unicode="J" horiz-adv-x="551" 
d="M422 494v-103q0 -126 -10 -186.5t-33 -102.5q-38 -66 -106 -99.5t-167 -33.5q-28 0 -58 3.5t-60 9.5l6 141q33 -11 64 -16t63 -5q85 0 118 53.5t33 260.5v1065h150v-987z" />
    <glyph glyph-name="K" unicode="K" horiz-adv-x="909" 
d="M131 0v1481h154v-791l438 791h151l-294 -523l342 -958h-164l-277 801l-198 -357v-444h-152z" />
    <glyph glyph-name="L" unicode="L" horiz-adv-x="782" 
d="M141 0v1481h154v-1340h465v-141h-619z" />
    <glyph glyph-name="M" unicode="M" horiz-adv-x="1262" 
d="M131 0v1481h236l178 -770q26 -112 46 -224t36 -227q14 105 35 217t49 232l180 772h237v-1481h-135v1376l-319 -1376h-94l-316 1376v-1376h-133z" />
    <glyph glyph-name="N" unicode="N" horiz-adv-x="1038" 
d="M381 1024q-31 83 -59 168.5t-54 173.5v-1366h-133v1481h221l306 -840q35 -100 65 -191.5t55 -177.5q-6 66 -9 136t-3 188v885h133v-1481h-149z" />
    <glyph glyph-name="O" unicode="O" horiz-adv-x="985" 
d="M492 -29q-202 0 -305 195.5t-103 574.5q0 380 103 574t305 194q201 0 305 -194.5t104 -573.5t-104 -574.5t-305 -195.5zM492 1372q-128 0 -188 -144t-60 -452q0 -353 58.5 -509t189.5 -156q128 0 187.5 150t59.5 480q0 328 -59.5 479.5t-187.5 151.5z" />
    <glyph glyph-name="P" unicode="P" horiz-adv-x="909" 
d="M285 803h129q149 0 225 67.5t76 200.5q0 137 -75.5 204.5t-225.5 67.5h-129v-540zM133 0v1481h248q240 0 358.5 -100t118.5 -302t-118.5 -301.5t-358.5 -99.5h-96v-678h-152z" />
    <glyph glyph-name="Q" unicode="Q" horiz-adv-x="985" 
d="M700 43q-48 -36 -99.5 -54t-108.5 -18q-202 0 -305 195.5t-103 574.5q0 380 103 574t305 194t305.5 -194t103.5 -574q0 -215 -29 -355t-94 -253q34 -59 74 -88.5t88 -32.5v-131q-87 14 -146 54t-94 108zM631 178q-30 42 -59 65.5t-60 31.5l20 120q39 -4 75.5 -29
t80.5 -77q27 65 39 163.5t12 247.5q0 359 -58.5 515.5t-188.5 156.5q-132 0 -190 -147.5t-58 -483.5q0 -326 59.5 -478t188.5 -152q37 0 72 17t67 50z" />
    <glyph glyph-name="R" unicode="R" horiz-adv-x="958" 
d="M285 834h129q152 0 228.5 64.5t76.5 193.5q0 130 -75.5 194t-229.5 64h-129v-516zM133 0v1481h270q241 0 359.5 -96.5t118.5 -292.5q0 -136 -60 -227t-174 -128l242 -737h-164l-223 704q-61 -2 -95 -3t-63 -1h-59v-700h-152z" />
    <glyph glyph-name="S" unicode="S" horiz-adv-x="891" 
d="M74 393h143q8 -145 65.5 -214.5t170.5 -69.5q97 0 157 67t60 178q0 97 -56 177.5t-231 209.5q-175 130 -231 221t-56 214q0 142 93.5 237.5t234.5 95.5q166 0 261 -105.5t101 -295.5h-140q-10 136 -64 205t-152 69q-91 0 -145 -56t-54 -150q0 -48 19 -93.5t53 -81.5
q50 -52 150.5 -127t126.5 -96q125 -101 179 -198t54 -220q0 -176 -100 -282.5t-264 -106.5q-176 0 -274 110t-101 312z" />
    <glyph glyph-name="T" unicode="T" horiz-adv-x="782" 
d="M315 0v1354h-297v127h744v-127h-297v-1354h-150z" />
    <glyph glyph-name="U" unicode="U" horiz-adv-x="1004" 
d="M129 518v963h152v-949q0 -268 47.5 -347t173.5 -79q123 0 171 80.5t48 345.5v949h151v-963q0 -195 -17.5 -281t-59.5 -141q-48 -60 -124 -92.5t-169 -32.5q-95 0 -171.5 32.5t-123.5 92.5q-43 53 -60.5 136.5t-17.5 285.5z" />
    <glyph glyph-name="V" unicode="V" horiz-adv-x="840" 
d="M348 0l-338 1481h152l221 -1010q11 -46 31 -191q4 -27 6 -40q12 72 23 128.5t22 108.5l219 1004h145l-337 -1481h-144z" />
    <glyph glyph-name="W" unicode="W" horiz-adv-x="1268" 
d="M408 0h-136l-233 1481h139l135 -881q17 -111 25 -192.5t10 -153.5q6 85 18 172.5t29 177.5l178 877h121l178 -877q18 -90 30 -177.5t18 -172.5q2 76 9.5 154.5t24.5 191.5l136 881h139l-234 -1481h-135l-203 1063q-9 45 -15 95t-9 105q-8 -79 -15.5 -139t-15.5 -100z" />
    <glyph glyph-name="X" unicode="X" horiz-adv-x="782" 
d="M-23 0l318 784l-301 697h162l219 -541l217 541h156l-285 -695l344 -786h-170l-256 629l-248 -629h-156z" />
    <glyph glyph-name="Y" unicode="Y" horiz-adv-x="772" 
d="M309 0v637l-332 844h158l254 -674l248 674h156l-328 -844v-637h-156z" />
    <glyph glyph-name="Z" unicode="Z" horiz-adv-x="756" 
d="M733 0h-704v115l536 1247h-481v119h649v-103l-540 -1243h540v-135z" />
    <glyph glyph-name="bracketleft" unicode="[" horiz-adv-x="551" 
d="M291 -84h231v-78h-362v1643h362v-78h-231v-1487z" />
    <glyph glyph-name="backslash" unicode="\" horiz-adv-x="569" 
d="M63 1509l555 -1699h-112l-557 1699h114z" />
    <glyph glyph-name="bracketright" unicode="]" horiz-adv-x="551" 
d="M260 -84v1487h-229v78h360v-1643h-360v78h229z" />
    <glyph glyph-name="asciicircum" unicode="^" horiz-adv-x="2048" 
d="M1094 1458l530 -557h-143l-457 455l-459 -455h-143l532 557h140z" />
    <glyph glyph-name="underscore" unicode="_" 
d="M1024 -383v-100h-1024v100h1024z" />
    <glyph glyph-name="grave" unicode="`" 
d="M649 1198h-106l-281 350h178z" />
    <glyph glyph-name="a" unicode="a" horiz-adv-x="840" 
d="M573 571q-171 -38 -265.5 -121t-94.5 -194q0 -62 40 -102.5t101 -40.5q49 0 105.5 29.5t113.5 84.5v344zM573 96q-52 -52 -114 -79t-129 -27q-120 0 -189 72t-69 196q0 156 128.5 271.5t372.5 177.5v67q0 101 -37 145t-122 44q-73 0 -113 -46.5t-59 -154.5l-138 22
q25 147 103.5 224t204.5 77q160 0 232.5 -83t72.5 -271v-485q0 -64 4.5 -125t13.5 -121h-145z" />
    <glyph glyph-name="b" unicode="b" horiz-adv-x="840" 
d="M264 240q41 -67 86.5 -101.5t93.5 -34.5q90 0 130 103.5t40 337.5q0 221 -40.5 322.5t-129.5 101.5q-47 0 -92 -33.5t-88 -101.5v-594zM123 0v1481h141v-514q51 61 102.5 90.5t106.5 29.5q139 0 214 -143t75 -412q0 -270 -75 -413.5t-216 -143.5q-54 0 -106 31t-101 92
v-98h-141z" />
    <glyph glyph-name="c" unicode="c" horiz-adv-x="764" 
d="M557 758q-5 104 -45 155.5t-115 51.5q-94 0 -136 -101t-42 -334q0 -235 41.5 -332.5t138.5 -97.5q76 0 118 63.5t47 184.5h130q-1 -172 -81 -273.5t-214 -101.5q-165 0 -244 136t-79 421q0 286 79 421.5t244 135.5q127 0 205 -88.5t84 -240.5h-131z" />
    <glyph glyph-name="d" unicode="d" horiz-adv-x="840" 
d="M715 0h-142v98q-48 -60 -101 -91.5t-107 -31.5q-141 0 -215 143t-74 414q0 269 74 412t212 143q56 0 108.5 -30t102.5 -90v514h142v-1481zM573 240v594q-43 68 -87.5 101.5t-92.5 33.5q-88 0 -129 -101.5t-41 -322.5q0 -234 40.5 -337.5t129.5 -103.5q48 0 93.5 34.5
t86.5 101.5z" />
    <glyph glyph-name="e" unicode="e" horiz-adv-x="780" 
d="M564 348h134q-9 -178 -88 -276.5t-211 -98.5q-165 0 -244 136t-79 421q0 286 79 421.5t244 135.5q153 0 230.5 -123t77.5 -368q0 -34 -0.5 -51t-2.5 -33h-484q1 -223 43 -317.5t136 -94.5q76 0 118 63.5t47 184.5zM221 631h340v41q0 156 -38.5 224.5t-125.5 68.5
q-84 0 -127 -81t-49 -253z" />
    <glyph glyph-name="f" unicode="f" horiz-adv-x="483" 
d="M475 1491v-115q-25 6 -39 8t-24 2q-67 0 -91 -32t-24 -148v-143h170v-125h-170v-938h-141v938h-160v125h160v125q0 181 46 247t163 66q35 0 61 -2.5t49 -7.5z" />
    <glyph glyph-name="g" unicode="g" horiz-adv-x="760" 
d="M193 393q-47 48 -70 124.5t-23 184.5q0 187 69.5 283t203.5 96q69 0 120.5 -24t86.5 -72q38 49 80.5 72.5t93.5 23.5h6v-132q-11 2 -20.5 3.5t-20.5 1.5q-27 0 -52 -11.5t-51 -35.5q16 -55 23.5 -112t7.5 -117q0 -171 -70 -262.5t-200 -91.5q-19 0 -41 2.5t-50 7.5
q-33 -2 -57 -21t-24 -41t14 -40.5t37 -26.5q32 -11 120.5 -26.5t141.5 -31.5q129 -38 180.5 -92.5t51.5 -146.5q0 -116 -102 -187t-269 -71q-166 0 -259 64.5t-93 179.5q0 59 36 109t115 99q-55 29 -80.5 61.5t-25.5 74.5q0 44 28 80.5t93 74.5zM311 61q-77 -30 -111 -67
t-34 -90q0 -63 58.5 -100t160.5 -37q111 0 172 35t61 98q0 67 -70 104.5t-237 56.5zM377 965q-80 0 -115 -60.5t-35 -202.5q0 -140 35 -200t115 -60q76 0 109.5 61t33.5 199q0 139 -34 201t-109 62z" />
    <glyph glyph-name="h" unicode="h" horiz-adv-x="846" 
d="M127 0v1481h141v-529q64 72 125 105t129 33q104 0 153.5 -67.5t49.5 -207.5v-815h-141v768q0 110 -27 153.5t-92 43.5q-52 0 -101 -35t-96 -105v-825h-141z" />
    <glyph glyph-name="i" unicode="i" horiz-adv-x="389" 
d="M123 1313v168h143v-168h-143zM123 0v1063h143v-1063h-143z" />
    <glyph glyph-name="j" unicode="j" horiz-adv-x="389" 
d="M123 1313v168h143v-168h-143zM266 -78q0 -157 -43.5 -217.5t-150.5 -60.5q-15 0 -40 2t-59 6v117q2 -1 6 -1q30 -3 44 -4q58 0 79 33.5t21 159.5v1106h143v-1141z" />
    <glyph glyph-name="k" unicode="k" horiz-adv-x="768" 
d="M266 553l279 510h143l-192 -348l243 -715h-151l-182 573l-140 -254v-319h-143v1481h143v-928z" />
    <glyph glyph-name="l" unicode="l" horiz-adv-x="389" 
d="M123 0v1481h143v-1481h-143z" />
    <glyph glyph-name="m" unicode="m" horiz-adv-x="1303" 
d="M127 0v1063h141v-111q64 72 124 105t128 33q69 0 117 -34.5t80 -107.5q73 76 133.5 109t126.5 33q104 0 154.5 -67.5t50.5 -207.5v-815h-144v768q0 112 -26 154.5t-90 42.5q-52 0 -101.5 -35t-95.5 -105v-825h-143v768q0 112 -26.5 154.5t-90.5 42.5q-52 0 -101 -35
t-96 -105v-825h-141z" />
    <glyph glyph-name="n" unicode="n" horiz-adv-x="846" 
d="M127 0v1063h141v-111q64 72 124 105t128 33q104 0 154.5 -68t50.5 -207v-815h-141v768q0 112 -26.5 154.5t-92.5 42.5q-54 0 -105.5 -36.5t-91.5 -103.5v-825h-141z" />
    <glyph glyph-name="o" unicode="o" horiz-adv-x="782" 
d="M217 530q0 -234 41 -332t135 -98q89 0 129.5 102t40.5 328q0 227 -40.5 330t-129.5 103q-94 0 -135 -99t-41 -334zM72 530q0 286 79 421.5t244 135.5q159 0 237.5 -138t78.5 -419q0 -280 -78.5 -418.5t-237.5 -138.5q-165 0 -244 136t-79 421z" />
    <glyph glyph-name="p" unicode="p" horiz-adv-x="840" 
d="M270 834v-594q44 -68 88.5 -102t92.5 -34q89 0 129.5 103.5t40.5 337.5q0 221 -41 322.5t-129 101.5q-48 0 -92.5 -33.5t-88.5 -101.5zM127 -356v1419h96l47 -96q51 61 102.5 90.5t106.5 29.5q139 0 214 -143t75 -412q0 -270 -75 -413.5t-216 -143.5q-54 0 -106 31
t-101 92v-454h-143z" />
    <glyph glyph-name="q" unicode="q" horiz-adv-x="840" 
d="M569 834q-43 68 -88 101.5t-92 33.5q-88 0 -129 -101.5t-41 -322.5q0 -234 40.5 -337.5t129.5 -103.5q47 0 92 34t88 102v594zM711 -356h-142v454q-49 -61 -101 -92t-106 -31q-141 0 -215.5 143.5t-74.5 413.5q0 269 74 412t212 143q56 0 108.5 -30t102.5 -90l47 96h95
v-1419z" />
    <glyph glyph-name="r" unicode="r" horiz-adv-x="539" 
d="M123 0v1063h143v-123q54 76 112 110.5t130 34.5q5 0 15.5 -1t15.5 -1v-137q-5 0 -15.5 1t-15.5 1q-79 0 -138 -40t-104 -126v-782h-143z" />
    <glyph glyph-name="s" unicode="s" horiz-adv-x="770" 
d="M74 258l135 31q13 -92 63.5 -144.5t122.5 -52.5q69 0 112.5 45.5t43.5 118.5q0 110 -192 240q-2 1 -3 2q-156 107 -204 173.5t-48 149.5q0 115 75.5 190.5t189.5 75.5q119 0 192.5 -62t106.5 -191l-121 -37q-22 86 -65 130t-107 44q-60 0 -97.5 -36.5t-37.5 -94.5
q0 -93 187 -218q80 -54 124 -87q71 -54 105 -120t34 -149q0 -133 -83 -212t-224 -79q-122 0 -205 76t-104 207z" />
    <glyph glyph-name="t" unicode="t" horiz-adv-x="492" 
d="M154 940h-142v123h142v354h139v-354h190v-123h-190v-682q0 -94 21 -126t75 -32q19 0 86 13l8 1v-118q-42 -11 -78 -17t-61 -6q-95 0 -142.5 52t-47.5 155v760z" />
    <glyph glyph-name="u" unicode="u" horiz-adv-x="846" 
d="M721 1063v-1063h-141v111q-64 -72 -124 -105t-128 -33q-104 0 -154.5 67t-50.5 206v817h141v-768q0 -112 26.5 -154.5t92.5 -42.5q54 0 105 36.5t92 103.5v825h141z" />
    <glyph glyph-name="v" unicode="v" horiz-adv-x="776" 
d="M293 0l-260 1063h143l215 -911l221 911h133l-262 -1063h-190z" />
    <glyph glyph-name="w" unicode="w" horiz-adv-x="1128" 
d="M254 0l-213 1063h137l129 -698q5 -28 9.5 -67.5t9.5 -90.5q4 45 9.5 84t12.5 71l152 701h131l155 -700q5 -19 9.5 -57.5t9.5 -98.5q6 83 9 115.5t5 41.5l129 699h139l-217 -1063h-125l-167 788q-4 19 -6.5 49t-4.5 70q-4 -42 -9 -72.5t-9 -47.5l-170 -787h-125z" />
    <glyph glyph-name="x" unicode="x" horiz-adv-x="662" 
d="M6 0l246 539l-240 524h148l159 -373l173 373h135l-232 -506l267 -557h-150l-182 408l-189 -408h-135z" />
    <glyph glyph-name="y" unicode="y" horiz-adv-x="711" 
d="M18 1063h148l184 -801l180 801h142l-248 -1059q-47 -198 -128.5 -280t-225.5 -82q-19 0 -28.5 0.5t-16.5 1.5v131q6 -1 13.5 -1.5t22.5 -0.5q97 0 150.5 56.5t77.5 182.5z" />
    <glyph glyph-name="z" unicode="z" horiz-adv-x="680" 
d="M49 0v109l424 833h-385v121h541v-100l-428 -844h428v-119h-580z" />
    <glyph glyph-name="braceleft" unicode="{" 
d="M854 1370h-37q-131 0 -177 -49.5t-46 -204.5v-242q0 -168 -43.5 -240t-153.5 -104q110 -31 153.5 -103t43.5 -241v-241q0 -155 45 -204.5t170 -49.5q7 0 22 1t23 1v-107h-47q-197 0 -266.5 72.5t-69.5 296.5v244q0 154 -57 217t-195 63q-7 0 -21.5 -1t-23.5 -1v109
q9 0 23.5 -1t21.5 -1q138 0 195 63t57 217v242q0 223 70 297t266 74h47v-107z" />
    <glyph glyph-name="bar" unicode="|" 
d="M567 1565v-2048h-108v2048h108z" />
    <glyph glyph-name="braceright" unicode="}" 
d="M555 1106v-242q0 -154 57 -217t195 -63q7 0 22 1t23 1v-109q-8 0 -23 1t-22 1q-138 0 -195 -63t-57 -217v-244q0 -223 -69.5 -296t-266.5 -73h-47v107h39q130 0 175.5 49t45.5 203v241q0 171 43 242t154 102q-111 32 -154 103t-43 241v242q0 157 -45 206.5t-170 49.5
q-7 0 -22 -1t-23 -1v107h47q196 0 266 -74t70 -297z" />
    <glyph glyph-name="asciitilde" unicode="~" horiz-adv-x="1706" 
d="M1530 637q-102 -72 -198 -107.5t-189 -35.5q-99 0 -260 57q-20 7 -29 10q-5 2 -16 6q-176 64 -273 64q-83 0 -175 -38t-212 -122v113q106 73 202 109t185 36q104 0 272 -61q11 -4 18 -7q9 -3 31 -11q167 -60 257 -60q85 0 177 38t210 122v-113z" />
    <glyph glyph-name="nonbreakingspace" unicode="&#xa0;" horiz-adv-x="870" 
 />
    <glyph glyph-name="exclamdown" unicode="&#xa1;" horiz-adv-x="524" 
d="M311 1047l35 -1047h-170l35 1047h100zM342 1483v-185h-162v185h162z" />
    <glyph glyph-name="cent" unicode="&#xa2;" horiz-adv-x="870" 
d="M455 979h-19q-100 0 -141 -102t-41 -369q0 -124 17.5 -210t52.5 -136zM619 758q-2 77 -21.5 126t-56.5 70l-135 -837q12 -3 25 -4.5t24 -1.5q74 0 114 65.5t44 194.5h118q-7 -182 -83 -276.5t-214 -94.5q-18 0 -27 0.5t-18 1.5l-49 -297h-90l51 330q-92 51 -134 175
t-42 345q0 270 83 401t253 131h12l41 259h90l-43 -269q79 -23 122.5 -103t49.5 -216h-114z" />
    <glyph glyph-name="sterling" unicode="&#xa3;" horiz-adv-x="870" 
d="M72 -16v147q90 49 130 134t40 235q0 40 -3.5 84.5t-9.5 91.5h-157v108h137q-7 38 -20 107q-35 189 -35 262q0 155 79 247.5t209 92.5q158 0 241 -107t83 -311l-131 1q-3 148 -49 221t-137 73q-76 0 -119 -51t-43 -141q0 -47 48 -320q9 -48 13 -73l207 -1v-108h-188
q5 -41 7.5 -82.5t2.5 -87.5q0 -65 -10.5 -127.5t-32.5 -124.5q43 -63 96 -97t107 -34q73 0 105.5 58.5t37.5 205.5h133v-8q0 -199 -66 -300.5t-196 -101.5q-69 0 -130 35t-140 123q-39 -57 -91.5 -95t-117.5 -56z" />
    <glyph glyph-name="currency" unicode="&#xa4;" horiz-adv-x="1241" 
d="M944 887q0 133 -94 227t-227 94q-134 0 -230 -94.5t-96 -226.5q0 -134 96 -230t230 -96q133 0 227 96t94 230zM360 1210q60 46 124.5 68t136.5 22t138.5 -22.5t123.5 -67.5l204 205l66 -65l-205 -205q44 -59 66 -125t22 -135t-22 -134t-66 -124l205 -207l-66 -66
l-204 205q-59 -45 -125 -67.5t-137 -22.5t-135 22t-126 68l-204 -205l-66 66l205 207q-45 61 -67.5 125.5t-22.5 132.5t22.5 133.5t67.5 126.5l-205 205l66 65z" />
    <glyph glyph-name="yen" unicode="&#xa5;" horiz-adv-x="772" 
d="M782 1470l-209 -530h185v-80h-215l-60 -149h275v-80h-303v-631h-133v631h-304v80h271l-60 149h-211v80h181l-205 530h141l254 -671l248 671h145z" />
    <glyph glyph-name="brokenbar" unicode="&#xa6;" 
d="M567 408v-758h-108v758h108zM567 1432v-758h-108v758h108z" />
    <glyph glyph-name="section" unicode="&#xa7;" 
d="M268 827q0 -37 25.5 -82t95.5 -127q83 -93 143 -137.5t105 -44.5q48 0 80.5 32t32.5 79q0 42 -30 92.5t-112 138.5q-79 88 -130.5 125t-92.5 37q-46 0 -81.5 -34t-35.5 -79zM201 0l102 74q45 -65 97.5 -99t105.5 -34q59 0 99 37t40 92q0 84 -168 262l-8 8q-27 29 -78 81
q-252 260 -252 388q0 105 60.5 163t169.5 58q-63 70 -92 128.5t-29 115.5q0 103 72 169t186 66q87 0 162.5 -45.5t122.5 -126.5l-101 -71q-39 61 -86.5 95t-91.5 34q-58 0 -95.5 -33t-37.5 -84q0 -41 35 -92.5t155 -171.5q4 -3 10 -10q304 -300 304 -459q0 -90 -62.5 -146
t-166.5 -59q60 -69 90 -135.5t30 -132.5q0 -116 -74 -184t-200 -68q-91 0 -167 45.5t-132 134.5z" />
    <glyph glyph-name="dieresis" unicode="&#xa8;" 
d="M592 1264v186h160v-186h-160zM272 1264v186h160v-186h-160z" />
    <glyph glyph-name="copyright" unicode="&#xa9;" horiz-adv-x="1706" 
d="M1073 915q-18 80 -75 124t-142 44q-122 0 -190 -95t-68 -267q0 -166 69 -260t189 -94q89 0 151 50.5t78 137.5h115q-11 -125 -108.5 -205t-241.5 -80q-177 0 -279 122t-102 335q0 203 107.5 326t283.5 123q135 0 226.5 -72t103.5 -189h-117zM1505 723q0 132 -48.5 251
t-139.5 210q-94 94 -213 143t-252 49q-132 0 -249 -48t-208 -140q-94 -96 -144 -215.5t-50 -249.5q0 -129 49.5 -247t142.5 -212q94 -93 212 -142.5t247 -49.5q130 0 250.5 50t216.5 144q91 89 138.5 206t47.5 251zM852 1456q149 0 283.5 -55.5t238.5 -159.5
q102 -102 156.5 -235.5t54.5 -282.5q0 -150 -53.5 -281t-157.5 -233q-107 -106 -242 -162.5t-280 -56.5t-278 55.5t-238 161.5q-105 104 -160 237t-55 279q0 145 56.5 279.5t162.5 242.5q101 103 232 157t280 54z" />
    <glyph glyph-name="ordfeminine" unicode="&#xaa;" horiz-adv-x="631" 
d="M430 1139q-129 -27 -199.5 -84.5t-70.5 -134.5q0 -44 30 -72.5t76 -28.5q37 0 80 21t84 59v240zM430 807q-38 -36 -84 -55t-98 -19q-90 0 -142.5 50t-52.5 137q0 109 97 190t280 125v47q0 70 -28 100.5t-91 30.5q-55 0 -84.5 -32.5t-44.5 -108.5l-104 16q18 103 77.5 157
t153.5 54q121 0 175.5 -58t54.5 -190v-340q0 -44 3 -87t9 -85h-109z" />
    <glyph glyph-name="guillemotleft" unicode="&#xab;" horiz-adv-x="813" 
d="M438 842l-235 -312l237 -311h-125l-241 311l241 312h123zM735 842l-235 -312l237 -311h-125l-241 311l243 312h121z" />
    <glyph glyph-name="logicalnot" unicode="&#xac;" horiz-adv-x="1706" 
d="M1452 858v-502h-96v402h-1102v100h1198z" />
    <glyph glyph-name="sfthyphen" unicode="&#xad;" horiz-adv-x="674" 
d="M92 467v127h490v-127h-490z" />
    <glyph glyph-name="registered" unicode="&#xae;" horiz-adv-x="1706" 
d="M850 1071h-158v-303h158q134 0 188 33.5t54 113.5q0 83 -57 119.5t-185 36.5zM874 1157q178 0 263.5 -57t85.5 -176q0 -89 -54 -149t-145 -73l188 -389h-145l-178 371h-197v-371h-127v844h309zM1505 721q0 134 -48 253t-138 210q-94 93 -213.5 142.5t-253.5 49.5
q-130 0 -246.5 -48t-208.5 -140q-95 -97 -145.5 -216.5t-50.5 -248.5t49.5 -247t142.5 -212q94 -93 212 -142.5t247 -49.5q130 0 250.5 50t216.5 144q91 89 138.5 204.5t47.5 250.5zM852 1456q152 0 285.5 -55t236.5 -160q102 -102 156.5 -235.5t54.5 -282.5
q0 -150 -53.5 -281t-157.5 -233q-107 -106 -242 -162.5t-280 -56.5q-147 0 -279.5 55.5t-236.5 161.5q-105 104 -160 237t-55 279q0 144 56.5 279.5t162.5 242.5q101 103 232 157t280 54z" />
    <glyph glyph-name="macron" unicode="&#xaf;" 
d="M254 1294v125h516v-125h-516z" />
    <glyph glyph-name="degree" unicode="&#xb0;" horiz-adv-x="674" 
d="M545 1174q0 86 -60.5 147t-146.5 61t-147.5 -61t-61.5 -147q0 -87 61 -147t148 -60t147 60t60 147zM338 1452q115 0 195.5 -81.5t80.5 -196.5t-81.5 -197t-196.5 -82q-117 0 -197 81t-80 198q0 116 81.5 197t197.5 81z" />
    <glyph glyph-name="plusminus" unicode="&#xb1;" horiz-adv-x="1706" 
d="M1452 150v-99h-1198v99h1198zM903 1169v-348h549v-98h-549v-348h-98v348h-551v98h551v348h98z" />
    <glyph glyph-name="twosuperior" unicode="&#xb2;" horiz-adv-x="575" 
d="M59 588v76q21 59 61.5 124t143.5 195q6 8 18 23q134 169 134 266q0 63 -34 100t-91 37q-65 0 -98.5 -46t-37.5 -138h-85q3 130 59.5 194t167.5 64q98 0 154.5 -56t56.5 -153q0 -113 -168 -323l-21 -25q-76 -94 -115 -152t-59 -104h361v-82h-447z" />
    <glyph glyph-name="threesuperior" unicode="&#xb3;" horiz-adv-x="575" 
d="M49 799h84q0 -75 31.5 -111.5t95.5 -36.5t99.5 50t35.5 141q0 94 -50 137t-159 43h-10v70h14q97 0 145 40t48 121q0 72 -31 113t-84 41q-49 0 -78 -29.5t-39 -89.5h-81q6 92 57.5 142.5t138.5 50.5q95 0 152 -62.5t57 -167.5q0 -70 -29 -117t-90 -75q70 -23 105 -77
t35 -140q0 -123 -63 -195t-169 -72q-104 0 -159.5 54.5t-55.5 156.5v13z" />
    <glyph glyph-name="acute" unicode="&#xb4;" 
d="M375 1198l209 350h178l-281 -350h-106z" />
    <glyph glyph-name="mu" unicode="&#xb5;" horiz-adv-x="1110" 
d="M344 1065l-125 -592q-8 -39 -12 -73t-4 -66q0 -117 58 -180.5t167 -63.5q125 0 215 107.5t133 310.5l121 557h139l-164 -770q-12 -55 -17 -85t-5 -48q0 -33 17 -49.5t51 -16.5q7 0 16.5 0.5t19.5 1.5l-20 -110q-19 -5 -41 -8t-45 -3q-70 0 -103.5 36t-33.5 110v14
q-42 -77 -120 -119.5t-179 -42.5q-92 0 -161 40t-108 116l-114 -557h-140l316 1491h139z" />
    <glyph glyph-name="paragraph" unicode="&#xb6;" 
d="M940 1409h-127v-1409h-82v1409h-186v-1409h-84v782q-174 8 -275.5 102.5t-101.5 245.5q0 157 107.5 253t285.5 96h463v-70z" />
    <glyph glyph-name="glyph121" unicode="&#xb7;" horiz-adv-x="436" 
d="M217 840q43 0 75 -31t32 -74t-32 -74.5t-75 -31.5q-44 0 -74 30.5t-30 75.5q0 43 30.5 74t73.5 31z" />
    <glyph glyph-name="cedilla" unicode="&#xb8;" 
d="M262 -424v88q80 -18 141.5 -27.5t104.5 -9.5q60 0 90.5 21.5t30.5 62.5q0 52 -33 75.5t-104 23.5q-21 0 -31 -0.5t-21 -1.5v192h72v-106h23q111 0 168 -45t57 -132q0 -89 -62.5 -135.5t-183.5 -46.5q-48 0 -109.5 10t-142.5 31z" />
    <glyph glyph-name="onesuperior" unicode="&#xb9;" horiz-adv-x="573" 
d="M137 588v74h117v704l-117 -6v49q47 14 85.5 31.5t70.5 38.5h53v-817h111v-74h-320z" />
    <glyph glyph-name="ordmasculine" unicode="&#xba;" horiz-adv-x="588" 
d="M164 1110q0 -165 30 -233t101 -68q66 0 96.5 71.5t30.5 229.5q0 160 -30.5 231.5t-96.5 71.5q-71 0 -101 -68.5t-30 -234.5zM53 1110q0 200 60 295.5t184 95.5q119 0 177 -96.5t58 -294.5q0 -197 -58 -293t-177 -96q-125 0 -184.5 95t-59.5 294z" />
    <glyph glyph-name="guillemotright" unicode="&#xbb;" horiz-adv-x="813" 
d="M373 842h123l241 -312l-241 -311h-125l237 311zM74 842h123l243 -312l-241 -311h-125l235 311z" />
    <glyph glyph-name="onequarter" unicode="&#xbc;" horiz-adv-x="1438" 
d="M1217 258l8 508h-4q-17 -47 -30.5 -82.5t-25.5 -63.5l-149 -362h201zM1217 -14v200h-291v41l250 596h129v-565h96v-72h-96v-200h-88zM209 -29l903 1514h109l-904 -1514h-108zM131 647v70h111v657l-111 -6v47q45 13 81.5 28.5t66.5 35.5h51v-762h106v-70h-305z" />
    <glyph glyph-name="onehalf" unicode="&#xbd;" horiz-adv-x="1438" 
d="M948 0v72q21 56 60.5 118.5t134.5 178.5q5 6 16 20q129 159 129 250q0 59 -32.5 93t-88.5 34q-60 0 -93 -43.5t-36 -126.5h-79q3 121 56.5 180.5t160.5 59.5q92 0 146 -53t54 -142q0 -105 -160 -301l-20 -25q-78 -94 -113.5 -145.5t-52.5 -91.5h344v-78h-426zM209 -29
l903 1514h109l-904 -1514h-108zM131 647v70h111v657l-111 -6v47q45 13 81.5 28.5t66.5 35.5h51v-762h106v-70h-305z" />
    <glyph glyph-name="threequarters" unicode="&#xbe;" horiz-adv-x="1440" 
d="M1217 258l8 508h-4q-17 -47 -30.5 -82.5t-25.5 -63.5l-149 -362h201zM1217 -14v200h-291v41l250 596h129v-565h96v-72h-96v-200h-88zM209 -29l903 1514h109l-904 -1514h-108zM47 844h80q0 -70 30 -103.5t91 -33.5q63 0 97 46t34 132t-49 127t-152 41h-8v65h12
q92 0 137.5 37.5t45.5 114.5q0 65 -30 104t-79 39q-47 0 -75 -28.5t-36 -83.5l-79 -1q6 86 55.5 133.5t132.5 47.5q91 0 145 -58.5t54 -156.5q0 -66 -28 -110t-85 -69q67 -22 100 -72.5t33 -129.5q0 -115 -60 -182.5t-161 -67.5q-99 0 -152 51t-53 148v10z" />
    <glyph glyph-name="questiondown" unicode="&#xbf;" horiz-adv-x="702" 
d="M461 1040q1 -11 1.5 -22.5t0.5 -34.5q0 -87 -20.5 -166t-73.5 -186q-17 -33 -51 -94q-103 -182 -103 -287q0 -77 36.5 -121.5t98.5 -44.5q64 0 103 48.5t39 129.5v6l114 -12q-2 -134 -72 -209.5t-192 -75.5t-192 73.5t-70 201.5q0 136 132 348q37 60 54 90
q48 84 69 158.5t21 156.5q0 6 -1 20t-1 21h107zM489 1481v-183h-161v183h161z" />
    <glyph glyph-name="Agrave" unicode="&#xc0;" horiz-adv-x="901" 
d="M295 575h309l-155 775zM27 0l321 1481h209l324 -1481h-160l-86 436h-373l-86 -436h-149zM588 1620h-106l-281 350h178z" />
    <glyph glyph-name="Aacute" unicode="&#xc1;" horiz-adv-x="901" 
d="M295 575h309l-155 775zM27 0l321 1481h209l324 -1481h-160l-86 436h-373l-86 -436h-149zM314 1620l209 350h178l-281 -350h-106z" />
    <glyph glyph-name="Acircumflex" unicode="&#xc2;" horiz-adv-x="901" 
d="M295 575h309l-155 775zM27 0l321 1481h209l324 -1481h-160l-86 436h-373l-86 -436h-149zM164 1620l197 350h178l197 -350h-107l-178 244l-180 -244h-107z" />
    <glyph glyph-name="Atilde" unicode="&#xc3;" horiz-adv-x="901" 
d="M295 575h309l-155 775zM27 0l321 1481h209l324 -1481h-160l-86 436h-373l-86 -436h-149zM742 1888q-24 -93 -75.5 -142.5t-123.5 -49.5q-13 0 -27 2.5t-38 9.5l-80 27q-12 4 -25.5 6t-27.5 2q-35 0 -58.5 -15.5t-38.5 -48.5h-88q22 92 72.5 139.5t126.5 47.5
q14 0 29 -2.5t30 -7.5l78 -27q17 -5 32.5 -7.5t28.5 -2.5q36 0 60.5 17.5t36.5 51.5h88z" />
    <glyph glyph-name="Adieresis" unicode="&#xc4;" horiz-adv-x="901" 
d="M295 575h309l-155 775zM27 0l321 1481h209l324 -1481h-160l-86 436h-373l-86 -436h-149zM531 1686v186h160v-186h-160zM211 1686v186h160v-186h-160z" />
    <glyph glyph-name="Aring" unicode="&#xc5;" horiz-adv-x="901" 
d="M315 1708q0 -60 42 -101.5t102 -41.5q59 0 100 41.5t41 101.5t-40.5 100.5t-100.5 40.5q-61 0 -102.5 -40.5t-41.5 -100.5zM295 575h309l-155 838zM27 0l321 1481q-67 38 -103 97t-36 130q0 104 71.5 176t176.5 72q104 0 176 -72t72 -176q0 -76 -39.5 -136.5
t-108.5 -90.5l324 -1481h-160l-86 436h-373l-86 -436h-149z" />
    <glyph glyph-name="AE" unicode="&#xc6;" horiz-adv-x="1386" 
d="M-10 0l583 1481h758v-135h-514v-512h377v-136h-377v-561h533v-137h-684v426h-361l-168 -426h-147zM360 565h306l6 781h-25z" />
    <glyph glyph-name="Ccedilla" unicode="&#xc7;" horiz-adv-x="950" 
d="M889 485v-32q0 -231 -101 -356.5t-286 -125.5q-208 0 -313 188.5t-105 561.5q0 405 103.5 597.5t320.5 192.5q170 0 268 -123.5t98 -340.5h-147q-8 162 -64.5 246.5t-156.5 84.5q-140 0 -202 -150.5t-62 -492.5q0 -335 68 -482t220 -147q104 0 163 92.5t59 256.5v30h137z
M239 -424v88q80 -18 141.5 -27.5t104.5 -9.5q60 0 90.5 21.5t30.5 62.5q0 52 -33 75.5t-104 23.5q-21 0 -31 -0.5t-21 -1.5v192h72v-106h23q111 0 168 -45t57 -132q0 -89 -62.5 -135.5t-183.5 -46.5q-48 0 -109.5 10t-142.5 31z" />
    <glyph glyph-name="Egrave" unicode="&#xc8;" horiz-adv-x="854" 
d="M133 0v1481h666v-138h-514v-509h377v-136h-377v-561h532v-137h-684zM604 1620h-106l-281 350h178z" />
    <glyph glyph-name="Eacute" unicode="&#xc9;" horiz-adv-x="854" 
d="M133 0v1481h666v-138h-514v-509h377v-136h-377v-561h532v-137h-684zM330 1620l209 350h178l-281 -350h-106z" />
    <glyph glyph-name="Ecircumflex" unicode="&#xca;" horiz-adv-x="854" 
d="M133 0v1481h666v-138h-514v-509h377v-136h-377v-561h532v-137h-684zM180 1620l197 350h178l197 -350h-107l-178 244l-180 -244h-107z" />
    <glyph glyph-name="Edieresis" unicode="&#xcb;" horiz-adv-x="854" 
d="M133 0v1481h666v-138h-514v-509h377v-136h-377v-561h532v-137h-684zM547 1686v186h160v-186h-160zM227 1686v186h160v-186h-160z" />
    <glyph glyph-name="Igrave" unicode="&#xcc;" horiz-adv-x="428" 
d="M137 0v1481h152v-1481h-152zM352 1620h-106l-281 350h178z" />
    <glyph glyph-name="Iacute" unicode="&#xcd;" horiz-adv-x="428" 
d="M137 0v1481h152v-1481h-152zM78 1620l209 350h178l-281 -350h-106z" />
    <glyph glyph-name="Icircumflex" unicode="&#xce;" horiz-adv-x="428" 
d="M137 0v1481h152v-1481h-152zM-72 1620l197 350h178l197 -350h-107l-178 244l-180 -244h-107z" />
    <glyph glyph-name="Idieresis" unicode="&#xcf;" horiz-adv-x="428" 
d="M137 0v1481h152v-1481h-152zM295 1686v186h160v-186h-160zM-25 1686v186h160v-186h-160z" />
    <glyph glyph-name="Eth" unicode="&#xd0;" horiz-adv-x="1004" 
d="M303 1349v-515h207v-111h-207v-583q35 -3 52.5 -4t29.5 -1q211 0 296 133.5t85 479.5q0 340 -84.5 473t-294.5 133q-13 0 -31 -1t-53 -4zM152 0v723h-142v111h142v647h274q257 0 373 -174t116 -564q0 -393 -115.5 -568t-373.5 -175h-274z" />
    <glyph glyph-name="Ntilde" unicode="&#xd1;" horiz-adv-x="1038" 
d="M381 1024q-31 83 -59 168.5t-54 173.5v-1366h-133v1481h221l306 -840q35 -100 65 -191.5t55 -177.5q-6 66 -9 136t-3 188v885h133v-1481h-149zM811 1888q-24 -93 -75.5 -142.5t-123.5 -49.5q-13 0 -27 2.5t-38 9.5l-80 27q-12 4 -25.5 6t-27.5 2q-35 0 -58.5 -15.5
t-38.5 -48.5h-88q22 92 72.5 139.5t126.5 47.5q14 0 29 -2.5t30 -7.5l78 -27q17 -5 32.5 -7.5t28.5 -2.5q36 0 60.5 17.5t36.5 51.5h88z" />
    <glyph glyph-name="Ograve" unicode="&#xd2;" horiz-adv-x="985" 
d="M492 -29q-202 0 -305 195.5t-103 574.5q0 380 103 574t305 194q201 0 305 -194.5t104 -573.5t-104 -574.5t-305 -195.5zM492 1372q-128 0 -188 -144t-60 -452q0 -353 58.5 -509t189.5 -156q128 0 187.5 150t59.5 480q0 328 -59.5 479.5t-187.5 151.5zM631 1620h-106
l-281 350h178z" />
    <glyph glyph-name="Oacute" unicode="&#xd3;" horiz-adv-x="985" 
d="M492 -29q-202 0 -305 195.5t-103 574.5q0 380 103 574t305 194q201 0 305 -194.5t104 -573.5t-104 -574.5t-305 -195.5zM492 1372q-128 0 -188 -144t-60 -452q0 -353 58.5 -509t189.5 -156q128 0 187.5 150t59.5 480q0 328 -59.5 479.5t-187.5 151.5zM357 1620l209 350
h178l-281 -350h-106z" />
    <glyph glyph-name="Ocircumflex" unicode="&#xd4;" horiz-adv-x="985" 
d="M492 -29q-202 0 -305 195.5t-103 574.5q0 380 103 574t305 194q201 0 305 -194.5t104 -573.5t-104 -574.5t-305 -195.5zM492 1372q-128 0 -188 -144t-60 -452q0 -353 58.5 -509t189.5 -156q128 0 187.5 150t59.5 480q0 328 -59.5 479.5t-187.5 151.5zM207 1620l197 350
h178l197 -350h-107l-178 244l-180 -244h-107z" />
    <glyph glyph-name="Otilde" unicode="&#xd5;" horiz-adv-x="985" 
d="M492 -29q-202 0 -305 195.5t-103 574.5q0 380 103 574t305 194q201 0 305 -194.5t104 -573.5t-104 -574.5t-305 -195.5zM492 1372q-128 0 -188 -144t-60 -452q0 -353 58.5 -509t189.5 -156q128 0 187.5 150t59.5 480q0 328 -59.5 479.5t-187.5 151.5zM785 1888
q-24 -93 -75.5 -142.5t-123.5 -49.5q-13 0 -27 2.5t-38 9.5l-80 27q-12 4 -25.5 6t-27.5 2q-35 0 -58.5 -15.5t-38.5 -48.5h-88q22 92 72.5 139.5t126.5 47.5q14 0 29 -2.5t30 -7.5l78 -27q17 -5 32.5 -7.5t28.5 -2.5q36 0 60.5 17.5t36.5 51.5h88z" />
    <glyph glyph-name="Odieresis" unicode="&#xd6;" horiz-adv-x="985" 
d="M492 -29q-202 0 -305 195.5t-103 574.5q0 380 103 574t305 194q201 0 305 -194.5t104 -573.5t-104 -574.5t-305 -195.5zM492 1372q-128 0 -188 -144t-60 -452q0 -353 58.5 -509t189.5 -156q128 0 187.5 150t59.5 480q0 328 -59.5 479.5t-187.5 151.5zM574 1686v186h160
v-186h-160zM254 1686v186h160v-186h-160z" />
    <glyph glyph-name="multiply" unicode="&#xd7;" horiz-adv-x="1706" 
d="M856 680l481 481l70 -69l-481 -482l481 -481l-70 -70l-481 482l-481 -482l-70 70l481 481l-481 482l70 69z" />
    <glyph glyph-name="Oslash" unicode="&#xd8;" horiz-adv-x="985" 
d="M98 -137l113 268q-65 95 -96 241.5t-31 360.5q0 386 102.5 581t305.5 195q74 0 128 -21t97 -67l67 164l97 -43l-93 -219q59 -95 86 -240.5t27 -375.5q0 -360 -107 -548t-311 -188q-60 0 -109 18.5t-89 55.5l-90 -229zM285 322l372 946q-26 48 -71 76t-94 28
q-132 0 -190 -147.5t-58 -483.5q0 -120 10 -224t31 -195zM344 195q25 -41 63.5 -62.5t84.5 -21.5q129 0 189 153.5t60 487.5q0 90 -8 181t-24 185z" />
    <glyph glyph-name="Ugrave" unicode="&#xd9;" horiz-adv-x="1004" 
d="M129 518v963h152v-949q0 -268 47.5 -347t173.5 -79q123 0 171 80.5t48 345.5v949h151v-963q0 -195 -17.5 -281t-59.5 -141q-48 -60 -124 -92.5t-169 -32.5q-95 0 -171.5 32.5t-123.5 92.5q-43 53 -60.5 136.5t-17.5 285.5zM639 1620h-106l-281 350h178z" />
    <glyph glyph-name="Uacute" unicode="&#xda;" horiz-adv-x="1004" 
d="M129 518v963h152v-949q0 -268 47.5 -347t173.5 -79q123 0 171 80.5t48 345.5v949h151v-963q0 -195 -17.5 -281t-59.5 -141q-48 -60 -124 -92.5t-169 -32.5q-95 0 -171.5 32.5t-123.5 92.5q-43 53 -60.5 136.5t-17.5 285.5zM365 1620l209 350h178l-281 -350h-106z" />
    <glyph glyph-name="Ucircumflex" unicode="&#xdb;" horiz-adv-x="1004" 
d="M129 518v963h152v-949q0 -268 47.5 -347t173.5 -79q123 0 171 80.5t48 345.5v949h151v-963q0 -195 -17.5 -281t-59.5 -141q-48 -60 -124 -92.5t-169 -32.5q-95 0 -171.5 32.5t-123.5 92.5q-43 53 -60.5 136.5t-17.5 285.5zM215 1620l197 350h178l197 -350h-107l-178 244
l-180 -244h-107z" />
    <glyph glyph-name="Udieresis" unicode="&#xdc;" horiz-adv-x="1004" 
d="M129 518v963h152v-949q0 -268 47.5 -347t173.5 -79q123 0 171 80.5t48 345.5v949h151v-963q0 -195 -17.5 -281t-59.5 -141q-48 -60 -124 -92.5t-169 -32.5q-95 0 -171.5 32.5t-123.5 92.5q-43 53 -60.5 136.5t-17.5 285.5zM582 1686v186h160v-186h-160zM262 1686v186h160
v-186h-160z" />
    <glyph glyph-name="Yacute" unicode="&#xdd;" horiz-adv-x="772" 
d="M309 0v637l-332 844h158l254 -674l248 674h156l-328 -844v-637h-156zM250 1620l209 350h178l-281 -350h-106z" />
    <glyph glyph-name="Thorn" unicode="&#xde;" horiz-adv-x="915" 
d="M285 1049v-541h129q149 0 225 67.5t76 200.5q0 137 -75.5 205t-225.5 68h-129zM285 0h-152v1481h152v-295h149q200 0 312 -106.5t112 -297.5q0 -202 -118.5 -301.5t-358.5 -99.5h-96v-381z" />
    <glyph glyph-name="germandbls" unicode="&#xdf;" horiz-adv-x="864" 
d="M121 0v1079q0 209 72 306.5t227 97.5q151 0 232 -93t81 -266q0 -113 -37 -184t-118 -113q105 -45 153.5 -142t48.5 -263q0 -213 -71.5 -326.5t-206.5 -113.5q-30 0 -59 4.5t-58 14.5v136q24 -16 51 -24.5t56 -8.5q75 0 111 83t36 259q0 150 -55.5 228.5t-163.5 81.5v128
q93 5 134.5 63.5t41.5 187.5q0 112 -44 170.5t-130 58.5q-81 0 -119.5 -67.5t-38.5 -206.5v-1090h-143z" />
    <glyph glyph-name="agrave" unicode="&#xe0;" horiz-adv-x="840" 
d="M573 571q-171 -38 -265.5 -121t-94.5 -194q0 -62 40 -102.5t101 -40.5q49 0 105.5 29.5t113.5 84.5v344zM573 96q-52 -52 -114 -79t-129 -27q-120 0 -189 72t-69 196q0 156 128.5 271.5t372.5 177.5v67q0 101 -37 145t-122 44q-73 0 -113 -46.5t-59 -154.5l-138 22
q25 147 103.5 224t204.5 77q160 0 232.5 -83t72.5 -271v-485q0 -64 4.5 -125t13.5 -121h-145zM569 1198h-106l-281 350h178z" />
    <glyph glyph-name="aacute" unicode="&#xe1;" horiz-adv-x="840" 
d="M573 571q-171 -38 -265.5 -121t-94.5 -194q0 -62 40 -102.5t101 -40.5q49 0 105.5 29.5t113.5 84.5v344zM573 96q-52 -52 -114 -79t-129 -27q-120 0 -189 72t-69 196q0 156 128.5 271.5t372.5 177.5v67q0 101 -37 145t-122 44q-73 0 -113 -46.5t-59 -154.5l-138 22
q25 147 103.5 224t204.5 77q160 0 232.5 -83t72.5 -271v-485q0 -64 4.5 -125t13.5 -121h-145zM295 1198l209 350h178l-281 -350h-106z" />
    <glyph glyph-name="acircumflex" unicode="&#xe2;" horiz-adv-x="840" 
d="M573 571q-171 -38 -265.5 -121t-94.5 -194q0 -62 40 -102.5t101 -40.5q49 0 105.5 29.5t113.5 84.5v344zM573 96q-52 -52 -114 -79t-129 -27q-120 0 -189 72t-69 196q0 156 128.5 271.5t372.5 177.5v67q0 101 -37 145t-122 44q-73 0 -113 -46.5t-59 -154.5l-138 22
q25 147 103.5 224t204.5 77q160 0 232.5 -83t72.5 -271v-485q0 -64 4.5 -125t13.5 -121h-145zM145 1198l197 350h178l197 -350h-107l-178 244l-180 -244h-107z" />
    <glyph glyph-name="atilde" unicode="&#xe3;" horiz-adv-x="840" 
d="M573 571q-171 -38 -265.5 -121t-94.5 -194q0 -62 40 -102.5t101 -40.5q49 0 105.5 29.5t113.5 84.5v344zM573 96q-52 -52 -114 -79t-129 -27q-120 0 -189 72t-69 196q0 156 128.5 271.5t372.5 177.5v67q0 101 -37 145t-122 44q-73 0 -113 -46.5t-59 -154.5l-138 22
q25 147 103.5 224t204.5 77q160 0 232.5 -83t72.5 -271v-485q0 -64 4.5 -125t13.5 -121h-145zM723 1466q-24 -93 -75.5 -142.5t-123.5 -49.5q-13 0 -27 2.5t-38 9.5l-80 27q-12 4 -25.5 6t-27.5 2q-35 0 -58.5 -15.5t-38.5 -48.5h-88q22 92 72.5 139.5t126.5 47.5
q14 0 29 -2.5t30 -7.5l78 -27q17 -5 32.5 -7.5t28.5 -2.5q36 0 60.5 17.5t36.5 51.5h88z" />
    <glyph glyph-name="adieresis" unicode="&#xe4;" horiz-adv-x="840" 
d="M573 571q-171 -38 -265.5 -121t-94.5 -194q0 -62 40 -102.5t101 -40.5q49 0 105.5 29.5t113.5 84.5v344zM573 96q-52 -52 -114 -79t-129 -27q-120 0 -189 72t-69 196q0 156 128.5 271.5t372.5 177.5v67q0 101 -37 145t-122 44q-73 0 -113 -46.5t-59 -154.5l-138 22
q25 147 103.5 224t204.5 77q160 0 232.5 -83t72.5 -271v-485q0 -64 4.5 -125t13.5 -121h-145zM512 1264v186h160v-186h-160zM192 1264v186h160v-186h-160z" />
    <glyph glyph-name="aring" unicode="&#xe5;" horiz-adv-x="840" 
d="M188 1403q0 104 72 176t176 72q105 0 176.5 -72t71.5 -176q0 -105 -71.5 -176.5t-176.5 -71.5q-104 0 -176 71.5t-72 176.5zM293 1401q0 -60 41.5 -100.5t101.5 -40.5t101 40.5t41 100.5t-41 101.5t-101 41.5q-61 0 -102 -41.5t-41 -101.5zM573 96q-52 -52 -114 -79
t-129 -27q-120 0 -189 72t-69 196q0 156 128.5 271.5t372.5 177.5v67q0 101 -37 145t-122 44q-73 0 -113 -46.5t-59 -154.5l-138 22q25 147 103.5 224t204.5 77q160 0 232.5 -83t72.5 -271v-485q0 -64 4.5 -125t13.5 -121h-145zM573 571q-171 -38 -265.5 -121t-94.5 -194
q0 -62 40 -102.5t101 -40.5q49 0 105.5 29.5t113.5 84.5v344z" />
    <glyph glyph-name="ae" unicode="&#xe6;" horiz-adv-x="1276" 
d="M637 123q-80 -73 -159.5 -109.5t-158.5 -36.5q-111 0 -179 75.5t-68 197.5q0 157 128 272t373 178q2 13 2 26v38q0 102 -36.5 149.5t-116.5 47.5q-78 0 -119.5 -47t-60.5 -156l-138 22q27 154 107.5 230.5t216.5 76.5q78 0 137.5 -27.5t100.5 -82.5q45 55 103 82.5
t126 27.5q152 0 228.5 -122.5t76.5 -368.5q0 -34 -0.5 -51.5t-1.5 -32.5h-485q0 -217 43 -314.5t139 -97.5q76 0 117.5 63t46.5 185h133q-9 -176 -87 -273.5t-210 -97.5q-84 0 -146.5 35.5t-111.5 110.5zM715 633h341q2 11 2.5 23.5t0.5 35.5q0 137 -42 205t-126 68
q-85 0 -129 -83.5t-47 -248.5zM573 565q-171 -39 -265.5 -122.5t-94.5 -194.5q0 -64 39.5 -105t101.5 -41q50 0 107.5 30t111.5 85v348z" />
    <glyph glyph-name="ccedilla" unicode="&#xe7;" horiz-adv-x="764" 
d="M557 758q-5 104 -45 155.5t-115 51.5q-94 0 -136 -101t-42 -334q0 -235 41.5 -332.5t138.5 -97.5q76 0 118 63.5t47 184.5h130q-1 -172 -81 -273.5t-214 -101.5q-165 0 -244 136t-79 421q0 286 79 421.5t244 135.5q127 0 205 -88.5t84 -240.5h-131zM133 -424v88
q80 -18 141.5 -27.5t104.5 -9.5q60 0 90.5 21.5t30.5 62.5q0 52 -33 75.5t-104 23.5q-21 0 -31 -0.5t-21 -1.5v192h72v-106h23q111 0 168 -45t57 -132q0 -89 -62.5 -135.5t-183.5 -46.5q-48 0 -109.5 10t-142.5 31z" />
    <glyph glyph-name="egrave" unicode="&#xe8;" horiz-adv-x="780" 
d="M564 348h134q-9 -178 -88 -276.5t-211 -98.5q-165 0 -244 136t-79 421q0 286 79 421.5t244 135.5q153 0 230.5 -123t77.5 -368q0 -34 -0.5 -51t-2.5 -33h-484q1 -223 43 -317.5t136 -94.5q76 0 118 63.5t47 184.5zM221 631h340v41q0 156 -38.5 224.5t-125.5 68.5
q-84 0 -127 -81t-49 -253zM543 1198h-106l-281 350h178z" />
    <glyph glyph-name="eacute" unicode="&#xe9;" horiz-adv-x="780" 
d="M564 348h134q-9 -178 -88 -276.5t-211 -98.5q-165 0 -244 136t-79 421q0 286 79 421.5t244 135.5q153 0 230.5 -123t77.5 -368q0 -34 -0.5 -51t-2.5 -33h-484q1 -223 43 -317.5t136 -94.5q76 0 118 63.5t47 184.5zM221 631h340v41q0 156 -38.5 224.5t-125.5 68.5
q-84 0 -127 -81t-49 -253zM269 1198l209 350h178l-281 -350h-106z" />
    <glyph glyph-name="ecircumflex" unicode="&#xea;" horiz-adv-x="780" 
d="M564 348h134q-9 -178 -88 -276.5t-211 -98.5q-165 0 -244 136t-79 421q0 286 79 421.5t244 135.5q153 0 230.5 -123t77.5 -368q0 -34 -0.5 -51t-2.5 -33h-484q1 -223 43 -317.5t136 -94.5q76 0 118 63.5t47 184.5zM221 631h340v41q0 156 -38.5 224.5t-125.5 68.5
q-84 0 -127 -81t-49 -253zM119 1198l197 350h178l197 -350h-107l-178 244l-180 -244h-107z" />
    <glyph glyph-name="edieresis" unicode="&#xeb;" horiz-adv-x="780" 
d="M564 348h134q-9 -178 -88 -276.5t-211 -98.5q-165 0 -244 136t-79 421q0 286 79 421.5t244 135.5q153 0 230.5 -123t77.5 -368q0 -34 -0.5 -51t-2.5 -33h-484q1 -223 43 -317.5t136 -94.5q76 0 118 63.5t47 184.5zM221 631h340v41q0 156 -38.5 224.5t-125.5 68.5
q-84 0 -127 -81t-49 -253zM486 1264v186h160v-186h-160zM166 1264v186h160v-186h-160z" />
    <glyph glyph-name="igrave" unicode="&#xec;" horiz-adv-x="389" 
d="M123 0v1063h143v-1063h-143zM332 1198h-106l-281 350h178z" />
    <glyph glyph-name="iacute" unicode="&#xed;" horiz-adv-x="389" 
d="M123 0v1063h143v-1063h-143zM58 1198l209 350h178l-281 -350h-106z" />
    <glyph glyph-name="icircumflex" unicode="&#xee;" horiz-adv-x="389" 
d="M123 0v1063h143v-1063h-143zM-92 1198l197 350h178l197 -350h-107l-178 244l-180 -244h-107z" />
    <glyph glyph-name="idieresis" unicode="&#xef;" horiz-adv-x="389" 
d="M123 0v1063h143v-1063h-143zM275 1264v186h160v-186h-160zM-45 1264v186h160v-186h-160z" />
    <glyph glyph-name="eth" unicode="&#xf0;" horiz-adv-x="782" 
d="M461 1014q-16 48 -31 80.5t-33 56.5l-227 -90l-37 92l209 82q-25 39 -69.5 76t-114.5 78l35 92q65 -22 131.5 -72.5t134.5 -130.5l225 86l39 -88l-211 -80q84 -155 126 -329.5t42 -366.5q0 -265 -70 -396t-213 -131q-150 0 -221.5 128.5t-71.5 398.5q0 260 70.5 393
t208.5 133q15 0 33.5 -3t44.5 -9zM238 500q0 -224 36 -316t121 -92q80 0 117 98t37 310q0 211 -37 309t-117 98q-85 0 -121 -92t-36 -315z" />
    <glyph glyph-name="ntilde" unicode="&#xf1;" horiz-adv-x="846" 
d="M127 0v1063h141v-111q64 72 124 105t128 33q104 0 154.5 -68t50.5 -207v-815h-141v768q0 112 -26.5 154.5t-92.5 42.5q-54 0 -105.5 -36.5t-91.5 -103.5v-825h-141zM715 1466q-24 -93 -75.5 -142.5t-123.5 -49.5q-13 0 -27 2.5t-38 9.5l-80 27q-12 4 -25.5 6t-27.5 2
q-35 0 -58.5 -15.5t-38.5 -48.5h-88q22 92 72.5 139.5t126.5 47.5q14 0 29 -2.5t30 -7.5l78 -27q17 -5 32.5 -7.5t28.5 -2.5q36 0 60.5 17.5t36.5 51.5h88z" />
    <glyph glyph-name="ograve" unicode="&#xf2;" horiz-adv-x="782" 
d="M217 530q0 -234 41 -332t135 -98q89 0 129.5 102t40.5 328q0 227 -40.5 330t-129.5 103q-94 0 -135 -99t-41 -334zM72 530q0 286 79 421.5t244 135.5q159 0 237.5 -138t78.5 -419q0 -280 -78.5 -418.5t-237.5 -138.5q-165 0 -244 136t-79 421zM528 1198h-106l-281 350
h178z" />
    <glyph glyph-name="oacute" unicode="&#xf3;" horiz-adv-x="782" 
d="M217 530q0 -234 41 -332t135 -98q89 0 129.5 102t40.5 328q0 227 -40.5 330t-129.5 103q-94 0 -135 -99t-41 -334zM72 530q0 286 79 421.5t244 135.5q159 0 237.5 -138t78.5 -419q0 -280 -78.5 -418.5t-237.5 -138.5q-165 0 -244 136t-79 421zM254 1198l209 350h178
l-281 -350h-106z" />
    <glyph glyph-name="ocircumflex" unicode="&#xf4;" horiz-adv-x="782" 
d="M217 530q0 -234 41 -332t135 -98q89 0 129.5 102t40.5 328q0 227 -40.5 330t-129.5 103q-94 0 -135 -99t-41 -334zM72 530q0 286 79 421.5t244 135.5q159 0 237.5 -138t78.5 -419q0 -280 -78.5 -418.5t-237.5 -138.5q-165 0 -244 136t-79 421zM104 1198l197 350h178
l197 -350h-107l-178 244l-180 -244h-107z" />
    <glyph glyph-name="otilde" unicode="&#xf5;" horiz-adv-x="782" 
d="M217 530q0 -234 41 -332t135 -98q89 0 129.5 102t40.5 328q0 227 -40.5 330t-129.5 103q-94 0 -135 -99t-41 -334zM72 530q0 286 79 421.5t244 135.5q159 0 237.5 -138t78.5 -419q0 -280 -78.5 -418.5t-237.5 -138.5q-165 0 -244 136t-79 421zM682 1466
q-24 -93 -75.5 -142.5t-123.5 -49.5q-13 0 -27 2.5t-38 9.5l-80 27q-12 4 -25.5 6t-27.5 2q-35 0 -58.5 -15.5t-38.5 -48.5h-88q22 92 72.5 139.5t126.5 47.5q14 0 29 -2.5t30 -7.5l78 -27q17 -5 32.5 -7.5t28.5 -2.5q36 0 60.5 17.5t36.5 51.5h88z" />
    <glyph glyph-name="odieresis" unicode="&#xf6;" horiz-adv-x="782" 
d="M217 530q0 -234 41 -332t135 -98q89 0 129.5 102t40.5 328q0 227 -40.5 330t-129.5 103q-94 0 -135 -99t-41 -334zM72 530q0 286 79 421.5t244 135.5q159 0 237.5 -138t78.5 -419q0 -280 -78.5 -418.5t-237.5 -138.5q-165 0 -244 136t-79 421zM471 1264v186h160v-186
h-160zM151 1264v186h160v-186h-160z" />
    <glyph glyph-name="divide" unicode="&#xf7;" horiz-adv-x="1706" 
d="M854 365q45 0 76 -31t31 -76q0 -44 -31 -75t-76 -31t-75.5 31t-30.5 75t31 75.5t75 31.5zM1452 659v-98h-1198v98h1198zM854 1071q44 0 75.5 -32t31.5 -76q0 -45 -31 -76t-76 -31t-75.5 30.5t-30.5 76.5q0 44 31.5 76t74.5 32z" />
    <glyph glyph-name="oslash" unicode="&#xf8;" horiz-adv-x="782" 
d="M236 264l249 660q-16 20 -38 29.5t-52 9.5q-97 0 -139.5 -99t-42.5 -334q0 -78 5.5 -143.5t17.5 -122.5zM295 141q14 -21 37.5 -31t62.5 -10q92 0 133 101.5t41 328.5q0 89 -6 155.5t-18 119.5zM59 -199l109 283q-50 60 -73 166.5t-23 279.5q0 286 79 421.5t244 135.5
q42 0 75 -9t62 -29l74 190l90 -43l-86 -217q51 -59 76 -169t25 -280q0 -285 -80 -421t-248 -136q-44 0 -78.5 9.5t-58.5 27.5l-94 -250z" />
    <glyph glyph-name="ugrave" unicode="&#xf9;" horiz-adv-x="846" 
d="M721 1063v-1063h-141v111q-64 -72 -124 -105t-128 -33q-104 0 -154.5 67t-50.5 206v817h141v-768q0 -112 26.5 -154.5t92.5 -42.5q54 0 105 36.5t92 103.5v825h141zM561 1198h-106l-281 350h178z" />
    <glyph glyph-name="uacute" unicode="&#xfa;" horiz-adv-x="846" 
d="M721 1063v-1063h-141v111q-64 -72 -124 -105t-128 -33q-104 0 -154.5 67t-50.5 206v817h141v-768q0 -112 26.5 -154.5t92.5 -42.5q54 0 105 36.5t92 103.5v825h141zM287 1198l209 350h178l-281 -350h-106z" />
    <glyph glyph-name="ucircumflex" unicode="&#xfb;" horiz-adv-x="846" 
d="M721 1063v-1063h-141v111q-64 -72 -124 -105t-128 -33q-104 0 -154.5 67t-50.5 206v817h141v-768q0 -112 26.5 -154.5t92.5 -42.5q54 0 105 36.5t92 103.5v825h141zM137 1198l197 350h178l197 -350h-107l-178 244l-180 -244h-107z" />
    <glyph glyph-name="udieresis" unicode="&#xfc;" horiz-adv-x="846" 
d="M721 1063v-1063h-141v111q-64 -72 -124 -105t-128 -33q-104 0 -154.5 67t-50.5 206v817h141v-768q0 -112 26.5 -154.5t92.5 -42.5q54 0 105 36.5t92 103.5v825h141zM504 1264v186h160v-186h-160zM184 1264v186h160v-186h-160z" />
    <glyph glyph-name="yacute" unicode="&#xfd;" horiz-adv-x="711" 
d="M18 1063h148l184 -801l180 801h142l-248 -1059q-47 -198 -128.5 -280t-225.5 -82q-19 0 -28.5 0.5t-16.5 1.5v131q6 -1 13.5 -1.5t22.5 -0.5q97 0 150.5 56.5t77.5 182.5zM219 1198l209 350h178l-281 -350h-106z" />
    <glyph glyph-name="thorn" unicode="&#xfe;" horiz-adv-x="840" 
d="M270 98v-454h-143v1837h143v-514q51 61 102.5 90.5t106.5 29.5q139 0 214 -143t75 -412q0 -270 -75 -413.5t-216 -143.5q-54 0 -106 31t-101 92zM270 240q44 -68 88.5 -102t92.5 -34q89 0 129.5 103.5t40.5 337.5q0 221 -41 322.5t-129 101.5q-48 0 -92.5 -33.5
t-88.5 -101.5v-594z" />
    <glyph glyph-name="ydieresis" unicode="&#xff;" horiz-adv-x="711" 
d="M18 1063h148l184 -801l180 801h142l-248 -1059q-47 -198 -128.5 -280t-225.5 -82q-19 0 -28.5 0.5t-16.5 1.5v131q6 -1 13.5 -1.5t22.5 -0.5q97 0 150.5 56.5t77.5 182.5zM436 1264v186h160v-186h-160zM116 1264v186h160v-186h-160z" />
    <glyph glyph-name="Cacute" unicode="&#x106;" horiz-adv-x="950" 
d="M889 485v-32q0 -231 -101 -356.5t-286 -125.5q-208 0 -313 188.5t-105 561.5q0 405 103.5 597.5t320.5 192.5q170 0 268 -123.5t98 -340.5h-147q-8 162 -64.5 246.5t-156.5 84.5q-140 0 -202 -150.5t-62 -492.5q0 -335 68 -482t220 -147q104 0 163 92.5t59 256.5v30h137z
M371 1620l209 350h178l-281 -350h-106z" />
    <glyph glyph-name="cacute" unicode="&#x107;" horiz-adv-x="764" 
d="M557 758q-5 104 -45 155.5t-115 51.5q-94 0 -136 -101t-42 -334q0 -235 41.5 -332.5t138.5 -97.5q76 0 118 63.5t47 184.5h130q-1 -172 -81 -273.5t-214 -101.5q-165 0 -244 136t-79 421q0 286 79 421.5t244 135.5q127 0 205 -88.5t84 -240.5h-131zM266 1198l209 350h178
l-281 -350h-106z" />
    <glyph glyph-name="Ccaron" unicode="&#x10c;" horiz-adv-x="950" 
d="M889 485v-32q0 -231 -101 -356.5t-286 -125.5q-208 0 -313 188.5t-105 561.5q0 405 103.5 597.5t320.5 192.5q170 0 268 -123.5t98 -340.5h-147q-8 162 -64.5 246.5t-156.5 84.5q-140 0 -202 -150.5t-62 -492.5q0 -335 68 -482t220 -147q104 0 163 92.5t59 256.5v30h137z
M221 1970h107l180 -243l178 243h107l-197 -350h-178z" />
    <glyph glyph-name="ccaron" unicode="&#x10d;" horiz-adv-x="764" 
d="M557 758q-5 104 -45 155.5t-115 51.5q-94 0 -136 -101t-42 -334q0 -235 41.5 -332.5t138.5 -97.5q76 0 118 63.5t47 184.5h130q-1 -172 -81 -273.5t-214 -101.5q-165 0 -244 136t-79 421q0 286 79 421.5t244 135.5q127 0 205 -88.5t84 -240.5h-131zM116 1548h107
l180 -243l178 243h107l-197 -350h-178z" />
    <glyph glyph-name="dcroat" unicode="&#x111;" horiz-adv-x="848" 
d="M715 0h-142v98q-48 -60 -101 -91.5t-107 -31.5q-141 0 -215 143t-74 414q0 268 74 411.5t212 143.5q56 0 107.5 -29.5t103.5 -90.5v274h-194v86h194v154h142v-154h125v-86h-125v-1241zM573 240v594q-44 69 -88 102t-92 33q-88 0 -129 -101.5t-41 -322.5
q0 -234 40.5 -337.5t129.5 -103.5q48 0 93.5 34.5t86.5 101.5z" />
    <glyph glyph-name="Gbreve" unicode="&#x11e;" horiz-adv-x="981" 
d="M780 0l-16 86q-50 -59 -112.5 -87t-145.5 -28q-211 0 -316.5 187.5t-105.5 562.5q0 405 103.5 597.5t320.5 192.5q170 0 268 -123.5t98 -340.5h-147q-8 162 -64.5 246.5t-156.5 84.5q-140 0 -201 -149.5t-61 -503.5q0 -324 67 -471.5t213 -147.5q102 0 160.5 75t58.5 206
v174h-215v133h359v-694h-107zM210 1931h89q7 -76 52.5 -110.5t140.5 -34.5t140.5 34.5t52.5 110.5h90q-11 -141 -79 -206.5t-204 -65.5t-204.5 66.5t-77.5 205.5z" />
    <glyph glyph-name="gbreve" unicode="&#x11f;" horiz-adv-x="760" 
d="M193 393q-47 48 -70 124.5t-23 184.5q0 187 69.5 283t203.5 96q69 0 120.5 -24t86.5 -72q38 49 80.5 72.5t93.5 23.5h6v-132q-11 2 -20.5 3.5t-20.5 1.5q-27 0 -52 -11.5t-51 -35.5q16 -55 23.5 -112t7.5 -117q0 -171 -70 -262.5t-200 -91.5q-19 0 -41 2.5t-50 7.5
q-33 -2 -57 -21t-24 -41t14 -40.5t37 -26.5q32 -11 120.5 -26.5t141.5 -31.5q129 -38 180.5 -92.5t51.5 -146.5q0 -116 -102 -187t-269 -71q-166 0 -259 64.5t-93 179.5q0 59 36 109t115 99q-55 29 -80.5 61.5t-25.5 74.5q0 44 28 80.5t93 74.5zM311 61q-77 -30 -111 -67
t-34 -90q0 -63 58.5 -100t160.5 -37q111 0 172 35t61 98q0 67 -70 104.5t-237 56.5zM377 965q-80 0 -115 -60.5t-35 -202.5q0 -140 35 -200t115 -60q76 0 109.5 61t33.5 199q0 139 -34 201t-109 62zM99 1509h89q7 -76 52.5 -110.5t140.5 -34.5t140.5 34.5t52.5 110.5h90
q-11 -141 -79 -206.5t-204 -65.5t-204.5 66.5t-77.5 205.5z" />
    <glyph glyph-name="Idotaccent" unicode="&#x130;" horiz-adv-x="428" 
d="M137 0v1481h152v-1481h-152zM127 1675v207h176v-207h-176z" />
    <glyph glyph-name="dotlessi" unicode="&#x131;" horiz-adv-x="389" 
d="M123 0v1063h143v-1063h-143z" />
    <glyph glyph-name="Lslash" unicode="&#x141;" horiz-adv-x="793" 
d="M152 0v647l-142 -96v127l142 100v703h151v-621l234 162v-129l-234 -164v-588h465v-141h-616z" />
    <glyph glyph-name="lslash" unicode="&#x142;" horiz-adv-x="408" 
d="M133 0v668l-123 -84v100l123 88v709h141v-633l123 86v-103l-123 -86v-745h-141z" />
    <glyph glyph-name="OE" unicode="&#x152;" horiz-adv-x="1466" 
d="M756 0v141q-43 -85 -109.5 -127.5t-154.5 -42.5q-202 0 -305 195.5t-103 574.5q0 381 104.5 575.5t309.5 194.5q91 0 153 -41.5t105 -132.5v144h657v-135h-520v-512h383v-136h-383v-561h537v-137h-674zM492 1372q-128 0 -188 -144t-60 -452q0 -353 58.5 -509t189.5 -156
q128 0 187.5 150t59.5 480q0 328 -59.5 479.5t-187.5 151.5z" />
    <glyph glyph-name="oe" unicode="&#x153;" horiz-adv-x="1280" 
d="M1063 348h133q-9 -181 -89 -278t-220 -97q-83 0 -145.5 39t-94.5 111q-43 -74 -106 -112t-142 -38q-165 0 -244 136t-79 421q0 286 79 421.5t244 135.5q82 0 140.5 -36t105.5 -115q45 77 106.5 114t145.5 37q153 0 230 -123t77 -368q0 -34 -0.5 -51.5t-1.5 -32.5h-485
q0 -10 -1 -29t-1 -28q0 -177 45.5 -266t136.5 -89q76 0 118.5 63.5t47.5 184.5zM719 633h342v41q0 154 -39 222.5t-127 68.5t-132 -83.5t-44 -248.5zM399 963q-97 0 -138.5 -98.5t-41.5 -334.5q0 -235 41.5 -332.5t138.5 -97.5q92 0 133 101.5t41 328.5q0 229 -41 331
t-133 102z" />
    <glyph glyph-name="Scedilla" unicode="&#x15e;" horiz-adv-x="891" 
d="M74 393h143q8 -145 65.5 -214.5t170.5 -69.5q97 0 157 67t60 178q0 97 -56 177.5t-231 209.5q-175 130 -231 221t-56 214q0 142 93.5 237.5t234.5 95.5q166 0 261 -105.5t101 -295.5h-140q-10 136 -64 205t-152 69q-91 0 -145 -56t-54 -150q0 -48 19 -93.5t53 -81.5
q50 -52 150.5 -127t126.5 -96q125 -101 179 -198t54 -220q0 -176 -100 -282.5t-264 -106.5q-176 0 -274 110t-101 312zM196 -424v88q80 -18 141.5 -27.5t104.5 -9.5q60 0 90.5 21.5t30.5 62.5q0 52 -33 75.5t-104 23.5q-21 0 -31 -0.5t-21 -1.5v192h72v-106h23
q111 0 168 -45t57 -132q0 -89 -62.5 -135.5t-183.5 -46.5q-48 0 -109.5 10t-142.5 31z" />
    <glyph glyph-name="scedilla" unicode="&#x15f;" horiz-adv-x="770" 
d="M74 258l135 31q13 -92 63.5 -144.5t122.5 -52.5q69 0 112.5 45.5t43.5 118.5q0 110 -192 240q-2 1 -3 2q-156 107 -204 173.5t-48 149.5q0 115 75.5 190.5t189.5 75.5q119 0 192.5 -62t106.5 -191l-121 -37q-22 86 -65 130t-107 44q-60 0 -97.5 -36.5t-37.5 -94.5
q0 -93 187 -218q80 -54 124 -87q71 -54 105 -120t34 -149q0 -133 -83 -212t-224 -79q-122 0 -205 76t-104 207zM135 -424v88q80 -18 141.5 -27.5t104.5 -9.5q60 0 90.5 21.5t30.5 62.5q0 52 -33 75.5t-104 23.5q-21 0 -31 -0.5t-21 -1.5v192h72v-106h23q111 0 168 -45
t57 -132q0 -89 -62.5 -135.5t-183.5 -46.5q-48 0 -109.5 10t-142.5 31z" />
    <glyph glyph-name="Scaron" unicode="&#x160;" horiz-adv-x="891" 
d="M74 393h143q8 -145 65.5 -214.5t170.5 -69.5q97 0 157 67t60 178q0 97 -56 177.5t-231 209.5q-175 130 -231 221t-56 214q0 142 93.5 237.5t234.5 95.5q166 0 261 -105.5t101 -295.5h-140q-10 136 -64 205t-152 69q-91 0 -145 -56t-54 -150q0 -48 19 -93.5t53 -81.5
q50 -52 150.5 -127t126.5 -96q125 -101 179 -198t54 -220q0 -176 -100 -282.5t-264 -106.5q-176 0 -274 110t-101 312zM159 1970h107l180 -243l178 243h107l-197 -350h-178z" />
    <glyph glyph-name="scaron" unicode="&#x161;" horiz-adv-x="770" 
d="M74 258l135 31q13 -92 63.5 -144.5t122.5 -52.5q69 0 112.5 45.5t43.5 118.5q0 110 -192 240q-2 1 -3 2q-156 107 -204 173.5t-48 149.5q0 115 75.5 190.5t189.5 75.5q119 0 192.5 -62t106.5 -191l-121 -37q-22 86 -65 130t-107 44q-60 0 -97.5 -36.5t-37.5 -94.5
q0 -93 187 -218q80 -54 124 -87q71 -54 105 -120t34 -149q0 -133 -83 -212t-224 -79q-122 0 -205 76t-104 207zM98 1548h107l180 -243l178 243h107l-197 -350h-178z" />
    <glyph glyph-name="Ydieresis" unicode="&#x178;" horiz-adv-x="772" 
d="M309 0v637l-332 844h158l254 -674l248 674h156l-328 -844v-637h-156zM467 1686v186h160v-186h-160zM147 1686v186h160v-186h-160z" />
    <glyph glyph-name="Zcaron" unicode="&#x17d;" horiz-adv-x="756" 
d="M733 0h-704v115l536 1247h-481v119h649v-103l-540 -1243h540v-135zM92 1970h107l180 -243l178 243h107l-197 -350h-178z" />
    <glyph glyph-name="zcaron" unicode="&#x17e;" horiz-adv-x="680" 
d="M49 0v109l424 833h-385v121h541v-100l-428 -844h428v-119h-580zM53 1548h107l180 -243l178 243h107l-197 -350h-178z" />
    <glyph glyph-name="florin" unicode="&#x192;" horiz-adv-x="870" 
d="M39 -338v121q21 -6 41 -9t37 -3q31 0 54.5 10t39.5 31q79 107 146 955l1 21h-174v121h187q12 307 87.5 445.5t227.5 138.5q23 0 50.5 -2t60.5 -6v-121q-26 8 -51 12t-50 4q-93 0 -133.5 -91.5t-56.5 -379.5h178v-121h-190q-39 -685 -117 -911.5t-246 -226.5
q-21 0 -44.5 3t-47.5 9z" />
    <glyph glyph-name="circumflex" unicode="&#x2c6;" 
d="M225 1198l197 350h178l197 -350h-107l-178 244l-180 -244h-107z" />
    <glyph glyph-name="caron" unicode="&#x2c7;" 
d="M225 1548h107l180 -243l178 243h107l-197 -350h-178z" />
    <glyph glyph-name="breve" unicode="&#x2d8;" 
d="M230 1509h89q7 -76 52.5 -110.5t140.5 -34.5t140.5 34.5t52.5 110.5h90q-11 -141 -79 -206.5t-204 -65.5t-204.5 66.5t-77.5 205.5z" />
    <glyph glyph-name="dotaccent" unicode="&#x2d9;" 
d="M424 1253v207h176v-207h-176z" />
    <glyph glyph-name="ring" unicode="&#x2da;" 
d="M371 1427q0 -60 40.5 -101.5t100.5 -41.5t101.5 42t41.5 101q0 60 -41.5 102t-101.5 42q-61 0 -101 -41.5t-40 -102.5zM264 1427q0 105 72 176.5t176 71.5t176 -71.5t72 -176.5q0 -104 -72 -175.5t-176 -71.5t-176 71.5t-72 175.5z" />
    <glyph glyph-name="ogonek" unicode="&#x2db;" 
d="M582 0q-71 -64 -104.5 -118.5t-33.5 -104.5q0 -45 22 -63.5t75 -18.5h82v-129h-80q-113 0 -167 40t-54 124q0 65 40.5 125.5t145.5 144.5h74z" />
    <glyph glyph-name="tilde" unicode="&#x2dc;" 
d="M803 1466q-24 -93 -75.5 -142.5t-123.5 -49.5q-13 0 -27 2.5t-38 9.5l-80 27q-12 4 -25.5 6t-27.5 2q-35 0 -58.5 -15.5t-38.5 -48.5h-88q22 92 72.5 139.5t126.5 47.5q14 0 29 -2.5t30 -7.5l78 -27q17 -5 32.5 -7.5t28.5 -2.5q36 0 60.5 17.5t36.5 51.5h88z" />
    <glyph glyph-name="hungarumlaut" unicode="&#x2dd;" 
d="M580 1198l168 350h155l-239 -350h-84zM322 1198l147 350h158l-221 -350h-84z" />
    <glyph glyph-name="Omega" unicode="&#x3a9;" horiz-adv-x="1579" 
d="M1462 139v-139h-581v127q207 124 313 293.5t106 374.5q0 260 -141.5 420.5t-367.5 160.5q-228 0 -370 -160t-142 -419q0 -207 106.5 -377.5t312.5 -292.5v-127h-581v139h344q-173 133 -256.5 291.5t-83.5 353.5q0 320 188.5 524.5t481.5 204.5q291 0 480 -203.5
t189 -523.5q0 -196 -83.5 -354t-258.5 -293h344z" />
    <glyph glyph-name="pi" unicode="&#x3c0;" horiz-adv-x="1171" 
d="M1120 944h-182l-115 -541q-15 -69 -22.5 -117t-7.5 -71q0 -58 25 -82t85 -24q29 0 51 2.5t41 6.5l-26 -118q-28 -8 -53.5 -12t-47.5 -4q-101 0 -157 53t-56 149q0 46 11 118t45 233l86 407h-365l-199 -944h-139l199 944h-39q-55 0 -85.5 -31.5t-41.5 -99.5h-131
q25 143 88 197.5t215 54.5h848z" />
    <glyph glyph-name="endash" unicode="&#x2013;" 
d="M0 483v95h1024v-95h-1024z" />
    <glyph glyph-name="emdash" unicode="&#x2014;" horiz-adv-x="2048" 
d="M0 578h2048v-95h-2048v95z" />
    <glyph glyph-name="quoteleft" unicode="&#x2018;" horiz-adv-x="436" 
d="M303 1212v-182h-162v195l121 284h60l-93 -297h74z" />
    <glyph glyph-name="quoteright" unicode="&#x2019;" horiz-adv-x="436" 
d="M147 1327v182h162v-192l-121 -287h-59l92 297h-74z" />
    <glyph glyph-name="quotesinglbase" unicode="&#x201a;" horiz-adv-x="436" 
d="M145 0v186h162v-194l-121 -285h-59l90 293h-72z" />
    <glyph glyph-name="quotedblleft" unicode="&#x201c;" horiz-adv-x="748" 
d="M612 1212v-182h-161v195l122 284h60l-92 -297h71zM303 1212v-182h-162v195l121 284h60l-93 -297h74z" />
    <glyph glyph-name="quotedblright" unicode="&#x201d;" horiz-adv-x="748" 
d="M459 1327v182h162v-192l-121 -287h-60l90 297h-71zM147 1327v182h162v-192l-121 -287h-59l92 297h-74z" />
    <glyph glyph-name="quotedblbase" unicode="&#x201e;" horiz-adv-x="748" 
d="M449 0v184h161v-194l-121 -285h-59l92 295h-73zM139 0v184h162v-194l-121 -285h-59l90 295h-72z" />
    <glyph glyph-name="dagger" unicode="&#x2020;" 
d="M471 -225q-2 284 -14.5 497t-36.5 361q20 106 33 194.5t20 163.5l-328 -53v180l328 -53l-53 416h180l-53 -416l327 53v-180l-327 53q11 -95 24 -183.5t29 -174.5q-23 -121 -35.5 -334t-15.5 -524h-78z" />
    <glyph glyph-name="daggerdbl" unicode="&#x2021;" 
d="M422 639q24 132 36 215t15 137l-326 -53v180l328 -53l-53 416h180l-53 -416l328 53v-180l-328 53q8 -82 21 -166t32 -186q-2 -14 -8 -48q-32 -173 -45 -302l328 53v-180l-328 53l53 -418h-180l53 418l-328 -53v180l330 -53q-10 93 -24 180.5t-31 169.5z" />
    <glyph glyph-name="bullet" unicode="&#x2022;" horiz-adv-x="1208" 
d="M307 762q0 123 87 209t210 86q122 0 208.5 -86.5t86.5 -208.5t-87.5 -209.5t-209.5 -87.5q-123 0 -209 87t-86 210z" />
    <glyph glyph-name="ellipsis" unicode="&#x2026;" horiz-adv-x="2048" 
d="M260 0v182h162v-182h-162zM942 0v182h162v-182h-162zM1626 0v182h162v-182h-162z" />
    <glyph glyph-name="perthousand" unicode="&#x2030;" horiz-adv-x="2261" 
d="M233 -29l908 1522h112l-907 -1522h-113zM399 1380q-83 0 -141.5 -58t-58.5 -140q0 -83 58.5 -141t141.5 -58t141 58t58 141t-58 140.5t-141 57.5zM399 1493q129 0 220.5 -91t91.5 -220t-91.5 -220.5t-220.5 -91.5t-220 91.5t-91 220.5t91 220t220 91zM1868 485
q-84 0 -142.5 -58t-58.5 -140q0 -83 58.5 -141t142.5 -58q83 0 140.5 58t57.5 141t-57.5 140.5t-140.5 57.5zM1868 598q129 0 220 -91t91 -220t-91 -220.5t-220 -91.5t-220.5 91.5t-91.5 220.5t91.5 220t220.5 91zM1110 485q-83 0 -141 -57.5t-58 -140.5t58 -141t141 -58
t141 58t58 141t-58 140.5t-141 57.5zM1112 598q129 0 219 -91t90 -220q0 -130 -90 -221t-219 -91t-220 91.5t-91 220.5t91 220t220 91z" />
    <glyph glyph-name="guilsinglleft" unicode="&#x2039;" horiz-adv-x="541" 
d="M442 842l-237 -312l237 -311h-125l-241 311l243 312h123z" />
    <glyph glyph-name="guilsinglright" unicode="&#x203a;" horiz-adv-x="541" 
d="M78 842h123l241 -312l-241 -311h-125l237 311z" />
    <glyph glyph-name="franc" unicode="&#x20a3;" horiz-adv-x="1337" 
d="M133 0v1481h621v-138h-469v-509h360v-136h-360v-698h-152zM922 0v1063h143v-123q54 76 112 110.5t130 34.5q5 0 15.5 -1t15.5 -1v-137q-5 0 -15.5 1t-15.5 1q-79 0 -138 -40t-104 -126v-782h-143z" />
    <glyph glyph-name="trademark" unicode="&#x2122;" horiz-adv-x="1706" 
d="M938 1454l166 -422l156 422h116v-530h-71v467l-177 -467h-49l-186 467v-467h-72v530h117zM694 1454v-57h-172v-473h-82v473h-176v57h430z" />
    <glyph glyph-name="partialdiff" unicode="&#x2202;" horiz-adv-x="1034" 
d="M752 592q12 83 18 160t6 149q0 158 -40 242t-115 84q-50 0 -108 -68.5t-103 -68.5q-31 0 -52.5 20t-21.5 47q0 62 63.5 107t155.5 45q165 0 264 -150.5t99 -406.5q0 -334 -136 -556.5t-333 -222.5q-143 0 -233.5 107t-90.5 278q0 179 109 304.5t262 125.5q98 0 160.5 -48
t95.5 -148zM711 463q0 128 -45 193t-134 65q-113 0 -186.5 -124.5t-73.5 -322.5q0 -126 44.5 -188.5t134.5 -62.5q112 0 186 125.5t74 314.5z" />
    <glyph glyph-name="Delta" unicode="&#x2206;" horiz-adv-x="1346" 
d="M1139 139l-467 1186l-465 -1186h932zM766 1473l590 -1473h-1366l590 1473h186z" />
    <glyph glyph-name="product" unicode="&#x220f;" horiz-adv-x="1509" 
d="M160 1473h1188v-1866h-168v1718h-852v-1718h-168v1866z" />
    <glyph glyph-name="summation" unicode="&#x2211;" horiz-adv-x="1317" 
d="M49 1473h1223v-144h-1014l705 -766l-740 -813h1057v-143h-1266v133l744 821l-709 772v140z" />
    <glyph glyph-name="minus" unicode="&#x2212;" horiz-adv-x="1706" 
d="M1452 659v-98h-1198v98h1198z" />
    <glyph glyph-name="fraction" unicode="&#x2215;" horiz-adv-x="342" 
d="M-340 -29l903 1514h109l-903 -1514h-109z" />
    <glyph glyph-name="periodcentered" unicode="&#x2219;" horiz-adv-x="436" 
d="M217 840q43 0 75 -31t32 -74t-32 -74.5t-75 -31.5q-44 0 -74 30.5t-30 75.5q0 43 30.5 74t73.5 31z" />
    <glyph glyph-name="radical" unicode="&#x221a;" horiz-adv-x="1276" 
d="M1276 1636v-71h-125l-594 -1606h-41l-328 899l-114 -39l-19 58l246 86l272 -746l525 1419h178z" />
    <glyph glyph-name="infinity" unicode="&#x221e;" horiz-adv-x="1706" 
d="M897 559q52 -100 122 -149.5t159 -49.5q106 0 173.5 75t67.5 192q0 113 -62.5 187.5t-156.5 74.5q-86 0 -155 -74t-148 -256zM811 668q-52 99 -121.5 147.5t-159.5 48.5q-106 0 -173.5 -74.5t-67.5 -189.5q0 -112 63 -187t156 -75q87 0 156.5 75t146.5 255zM838 721
q72 144 149 206t182 62q124 0 215 -107.5t91 -265.5q0 -169 -81.5 -273.5t-211.5 -104.5q-95 0 -168 60.5t-146 203.5q-71 -139 -148 -201.5t-173 -62.5q-132 0 -223 106.5t-91 267.5q0 169 81.5 273t211.5 104q97 0 171.5 -64t140.5 -204z" />
    <glyph glyph-name="integral" unicode="&#x222b;" horiz-adv-x="985" 
d="M293 -272q104 0 117 713q2 127 4 196q11 486 98 698.5t268 212.5q70 0 114 -37t44 -96q0 -48 -28.5 -76t-78.5 -28q-78 0 -103 69.5t-34 69.5q-105 0 -116 -623q-4 -185 -7 -289q-15 -497 -101 -703t-267 -206q-69 0 -113.5 36t-44.5 91q0 51 31 81t82 30
q36 0 61.5 -16.5t40.5 -51.5q4 -9 7 -33q4 -38 26 -38z" />
    <glyph glyph-name="approxequal" unicode="&#x2248;" horiz-adv-x="1706" 
d="M1530 469q-106 -74 -201 -109.5t-186 -35.5q-101 0 -291 69.5t-287 69.5q-82 0 -171 -36.5t-216 -123.5v111q107 74 202 109.5t185 35.5q109 0 298.5 -68.5t279.5 -68.5q86 0 175 35.5t212 122.5v-111zM1530 807q-104 -74 -199 -109.5t-188 -35.5q-103 0 -292 69.5
t-286 69.5q-82 0 -171 -36.5t-216 -123.5v113q105 73 201 109t186 36q109 0 298.5 -69.5t279.5 -69.5q84 0 171 34.5t216 123.5v-111z" />
    <glyph glyph-name="notequal" unicode="&#x2260;" horiz-adv-x="1706" 
d="M1288 1110l-205 -264h369v-96h-432l-215 -277h647v-98h-709l-254 -324l-73 60l205 264h-367v98h428l215 277h-643v96h707l253 323z" />
    <glyph glyph-name="lessequal" unicode="&#x2264;" horiz-adv-x="1706" 
d="M1442 139v-98h-1178v98h1178zM1442 1075l-1010 -338l1010 -336v-106l-1178 401v84l1178 402v-107z" />
    <glyph glyph-name="greaterequal" unicode="&#x2265;" horiz-adv-x="1706" 
d="M1442 139v-98h-1178v98h1178zM1442 780v-84l-1178 -401v106l1010 336l-1010 338v107z" />
    <glyph glyph-name="lozenge" unicode="&#x25ca;" horiz-adv-x="1012" 
d="M506 1409l-385 -817l385 -825l385 825zM506 1653l500 -1061l-500 -1069l-500 1069z" />
    <glyph glyph-name="apple" unicode="&#xf000;" horiz-adv-x="1618" 
d="M836 1216q-1 6 -1.5 14t-0.5 23q0 124 95 229.5t236 131.5q1 -10 1.5 -23t0.5 -39q0 -131 -103.5 -234.5t-203.5 -103.5h-8q-3 0 -7.5 1t-8.5 1zM1505 403q-114 -247 -205 -342.5t-204 -95.5q-50 0 -131.5 33t-122.5 33q-45 0 -131 -33t-127 -33q-64 0 -128.5 44
t-129.5 132q-102 140 -157.5 295.5t-55.5 300.5q0 219 125 356.5t323 137.5q68 0 155 -34t124 -34q34 0 121.5 34t152.5 34q111 0 199 -39.5t160 -122.5q-102 -65 -151.5 -145.5t-49.5 -182.5q0 -113 60 -200t173 -138z" />
    <glyph glyph-name="fi" unicode="&#xf001;" horiz-adv-x="874" 
d="M475 1491v-115q-25 6 -39 8t-24 2q-67 0 -91 -32t-24 -148v-143h170v-125h-170v-938h-141v938h-160v125h160v125q0 181 46 247t163 66q35 0 61 -2.5t49 -7.5zM608 0v1063h144v-1063h-144zM608 1313v168h144v-168h-144z" />
    <glyph glyph-name="fl" unicode="&#xf002;" horiz-adv-x="874" 
d="M475 1491v-115q-25 6 -39 8t-24 2q-67 0 -91 -32t-24 -148v-143h170v-125h-170v-938h-141v938h-160v125h160v125q0 181 46 247t163 66q35 0 61 -2.5t49 -7.5zM608 0v1481h144v-1481h-144z" />
    </font>
</defs>
</svg>
