<?xml version="1.0" encoding="utf-8"?>
<!-- Generator: Adobe Illustrator 22.0.1, SVG Export Plug-In . SVG Version: 6.00 Build 0)  -->
<svg version="1.1" id="Layer_1" xmlns="http://www.w3.org/2000/svg" xmlns:xlink="http://www.w3.org/1999/xlink" x="0px" y="0px"
	 viewBox="0 0 622 70" style="enable-background:new 0 0 622 70;" xml:space="preserve">
<style type="text/css">
	.st0{fill:#DFD7CF;}
</style>
<polyline class="st0" points="74,1.9 114.5,1.9 114.5,7.7 84.3,7.7 84.3,32.1 107.4,32.1 107.4,37.4 84.3,37.4 84.3,62.9 
	115.7,62.9 115.7,68.8 74,68.8 74,1.9 "/>
<path class="st0" d="M141.8,68.8h-10.1V1.9h17.1c10.2,0,21.6,5.5,21.6,18.1c0,10.9-8.2,15.4-12.1,16.8l20.9,31.9H168l-1.6-2.1
	L148,37.5h-6.2V68.8 M146.3,33.6c7.7,0,13.6-4.8,13.6-13.5c0-9.2-6.8-13.1-13.8-13.1h-4.3v26.6H146.3z"/>
<path class="st0" d="M203.4,68.8h-10.1V1.9h17c10.2,0,21.5,5.5,21.5,18.1c0,10.9-8.2,15.4-12.1,16.8L241,68.7h-11l-1.6-2.1
	l-18.8-29.2h-6.2V68.8 M207.9,33.6c7.7,0,13.6-4.8,13.6-13.5c0-9.2-6.8-13.1-13.8-13.1h-4.3v26.6H207.9z"/>
<polyline class="st0" points="336.8,7.9 316.1,7.9 316.1,1.9 367.8,1.9 367.8,7.9 347.1,7.9 347.1,68.8 336.8,68.8 336.8,7.9 "/>
<g>
	<g>
		<rect x="380.6" y="1.9" class="st0" width="10.2" height="66.9"/>
	</g>
	<g>
		<path class="st0" d="M10.7,35.2c0,16.8,10.7,29.1,26.4,28.6c9.6-0.3,17.1-6.5,19.3-8.7v10.3c-3.8,2.1-11.7,4.4-19.9,4.5
			C16.3,70,0,56.3,0,35.3S16,1,36.1,1.2c10,0,18.2,3.3,20,4.2v11.3c-1.8-1.7-10-9.5-19.9-9.9C19.7,6,10.7,18.8,10.7,35.2"/>
	</g>
	<g>
		<path class="st0" d="M304.4,45.5c0,14.3-8.9,24.5-25.6,24.5c-16.2,0-25.7-10.2-25.7-24.5V1.9h9.7v46.7c0,9.1,6.6,15.6,16,15.6
			c9.5,0,15.7-6.5,15.7-15.6V1.9h9.9V45.5"/>
	</g>
	<g>
		<path class="st0" d="M526.3,32.7c0,0,8.7-4,8.7-14.3c0-11.1-10-17.8-20-17.8c-10.3,0-20.1,6.7-20.1,17.8c0,10.4,8.8,14.3,8.8,14.3
			c-3.5,1.3-10.9,6.7-10.9,16.6c0,11.5,9,20.1,22,20.1c13.1,0,22.3-8.7,22.3-19.9C537.1,39.8,529.7,34,526.3,32.7 M503.7,18.5
			c0-7,4.5-12.1,11.2-12.1c6.6,0,11.1,5.1,11.1,12.1c0,6.9-4.7,12-11.1,12C508.4,30.5,503.7,25.4,503.7,18.5z M514.9,63
			c-7.4,0-12.9-5.6-12.9-13.5c0-8.2,5.8-13.5,12.8-13.5c6.9,0,12.9,5.3,12.9,13.5C527.7,57.4,522.6,63,514.9,63z"/>
	</g>
	<g>
		<path class="st0" d="M584.6,32.7c0,0,8.7-4,8.7-14.3c0-11.1-10-17.8-20.1-17.8c-10.2,0-20.1,6.7-20.1,17.8
			c0,10.4,8.8,14.3,8.8,14.3C558.4,34,551,39.4,551,49.3c0,11.5,9.1,20.1,22,20.1c13.1,0,22.3-8.7,22.3-19.9
			C595.4,39.8,588,34,584.6,32.7 M562,18.5c0-7,4.5-12.1,11.2-12.1c6.6,0,11.1,5.1,11.1,12.1c0,6.9-4.7,12-11.1,12
			C566.7,30.5,562,25.4,562,18.5z M573.2,63c-7.4,0-12.9-5.6-12.9-13.5c0-8.2,5.9-13.5,12.8-13.5c6.9,0,12.9,5.3,12.9,13.5
			C586,57.4,580.8,63,573.2,63z"/>
	</g>
</g>
<rect x="612.9" y="1.9" class="st0" width="8.8" height="66.9"/>
<rect x="466.4" y="1.9" class="st0" width="8.8" height="66.9"/>
</svg>
