<?xml version="1.0" encoding="utf-8"?>
<!-- Generator: Adobe Illustrator 22.0.1, SVG Export Plug-In . SVG Version: 6.00 Build 0)  -->
<svg version="1.1" id="Layer_1" xmlns="http://www.w3.org/2000/svg" xmlns:xlink="http://www.w3.org/1999/xlink" x="0px" y="0px"
	 viewBox="0 0 129.8 74.6" style="enable-background:new 0 0 129.8 74.6;" xml:space="preserve">
<style type="text/css">
	.st0{fill:#FFFFFF;}
</style>
<g>
	<path class="st0" d="M35.6,71.8h12.1l-0.1-38.3c0,0,0-10.5-12.7-10.5c-6.5,0-9.4,2.4-9.4,2.4s0,0.1,0,0.2c0-0.1,0-0.2,0-0.2
		S22.7,23,16.1,23C3.5,23,3.5,33.5,3.5,33.5L3.4,71.8h12.1V37.9c0,0-0.1-2,2.2-2s2.2,2.1,2.2,2.1v33.8h11.3V38c0,0-0.2-2.1,2.2-2.1
		c2.3,0,2.2,2,2.2,2S35.6,71.8,35.6,71.8z"/>
	<path class="st0" d="M83.9,71.7h11.2V6.4c0,0-0.8-4.5-5.8-4.5s-5.6,4.5-5.6,4.5L83.9,71.7z"/>
	<path class="st0" d="M126.6,63.5V23h-11.8v36.4c0,0,0.2,1.9-1.9,1.9c0,0,0,0-0.1,0s0,0-0.1,0c-2.1,0-1.9-1.9-1.9-1.9V23H99.1v40.6
		c0,0-0.2,8.2,7.4,8.2h12.6C126.8,71.7,126.6,63.5,126.6,63.5z"/>
	<g>
		<path class="st0" d="M73.8,23C67,23,60,23,60,23s-1,0.1-1,1.1c0,1.1,1,1.1,1,1.1c4.5,0.8,8.6,1.4,8.6,6.2v5c-0.5,0.4-1.3-5-9.3-5
			s-7.9,5.4-7.9,5.4l-0.1,29.5c0,0,0.1,5.4,5.6,5.4c0,0,4.3,0,6,0c3,0,3.1-2,3.1-2l1.2,1.9c0,0,7.4,0.1,10.1,0.1s2.6-3.5,2.6-3.5V31
			C79.9,31,80.5,23,73.8,23z M67.3,59.7c0,0.9-0.8,1.7-1.7,1.7c-1,0-1.7-0.8-1.7-1.7V43.3c0-1,0.8-1.7,1.7-1.7s1.7,0.8,1.7,1.7V59.7
			z"/>
	</g>
</g>
</svg>
